<?xml version="1.0" encoding="UTF-8" standalone="no"?>
<!-- Created with Inkscape (http://www.inkscape.org/) -->

<svg
   version="1.1"
   id="svg14792"
   width="800"
   height="800"
   viewBox="0 0 800 800"
   sodipodi:docname="garland-light-bulbs-publicdomainvectors.org.svg"
   inkscape:version="1.2 (dc2aedaf03, 2022-05-15)"
   xmlns:inkscape="http://www.inkscape.org/namespaces/inkscape"
   xmlns:sodipodi="http://sodipodi.sourceforge.net/DTD/sodipodi-0.dtd"
   xmlns="http://www.w3.org/2000/svg"
   xmlns:svg="http://www.w3.org/2000/svg">
  <defs
     id="defs14796">
    <clipPath
       clipPathUnits="userSpaceOnUse"
       id="clipPath14810">
      <path
         d="M 0,600 H 600 V 0 H 0 Z"
         id="path14808" />
    </clipPath>
  </defs>
  <sodipodi:namedview
     id="namedview14794"
     pagecolor="#ffffff"
     bordercolor="#000000"
     borderopacity="0.25"
     inkscape:showpageshadow="2"
     inkscape:pageopacity="0.0"
     inkscape:pagecheckerboard="0"
     inkscape:deskcolor="#d1d1d1"
     showgrid="false"
     inkscape:zoom="1.04625"
     inkscape:cx="400"
     inkscape:cy="400.4779"
     inkscape:window-width="1920"
     inkscape:window-height="1017"
     inkscape:window-x="-8"
     inkscape:window-y="-8"
     inkscape:window-maximized="1"
     inkscape:current-layer="g14800">
    <inkscape:page
       x="0"
       y="0"
       id="page14798"
       width="800"
       height="800" />
  </sodipodi:namedview>
  <g
     id="g14800"
     inkscape:groupmode="layer"
     inkscape:label="Page 1"
     transform="matrix(1.3333333,0,0,-1.3333333,0,800)">
    <path
       d="m 488.974,145.019 h 18.145 v -3.135 h -18.145 z m 0,16.244 h 18.145 v -3.136 h -18.145 z"
       style="fill:#f2a50f;fill-opacity:1;fill-rule:evenodd;stroke:none"
       id="path14802" />
    <g
       id="g14804">
      <g
         id="g14806"
         clip-path="url(#clipPath14810)">
        <g
           id="g14812"
           transform="translate(335.1182,337.7363)">
          <path
             d="m 0,0 c -1.358,7.55 -5.091,13.645 -10.02,17.942 -5.333,4.651 -12.073,7.195 -18.717,7.195 -8.292,0 -17.456,-3.935 -24.447,-10.175 -6.368,-5.682 -10.872,-13.234 -11.153,-21.379 -0.039,-1.177 -0.06,-2.518 -0.06,-4.018 0,-20.214 5.453,-36.852 16.699,-48.572 11.277,-11.751 28.474,-18.691 51.948,-19.499 1.364,-0.047 2.93,-0.07 4.699,-0.07 26.338,0 49.376,7.5 66.538,21.116 16.749,13.29 27.937,32.444 31.146,56.166 0.79,5.849 1.177,11.6 1.177,17.234 0,28.271 -9.919,52.684 -27.288,71.023 -17.428,18.403 -42.376,30.745 -72.361,34.802 -7.083,0.959 -14.485,1.453 -22.18,1.453 -39.441,0 -76.773,-14.341 -105.458,-37.816 -28.558,-23.37 -48.527,-55.774 -53.437,-92.058 -1.007,-7.448 -1.498,-14.823 -1.498,-22.098 0,-39.188 14.471,-74.354 39.272,-101.114 24.846,-26.811 60.066,-45.216 101.504,-50.822 8.728,-1.181 17.771,-1.794 27.091,-1.794 l 0.011,-0.009 140.443,-0.987 -0.021,-5.367 -140.433,0.989 v -0.01 c -9.487,0 -18.771,0.633 -27.806,1.854 -42.717,5.78 -79.054,24.788 -104.724,52.486 -25.716,27.75 -40.723,64.189 -40.723,104.774 0,7.438 0.512,15.051 1.562,22.814 5.1,37.698 25.784,71.312 55.351,95.507 29.611,24.232 68.15,39.036 108.866,39.036 7.86,0 15.503,-0.516 22.895,-1.515 31.236,-4.226 57.282,-17.144 75.539,-36.422 18.319,-19.343 28.781,-45.032 28.781,-74.726 0,-5.798 -0.407,-11.788 -1.24,-17.949 C 108.55,-27.181 96.651,-47.527 78.832,-61.668 60.715,-76.042 36.514,-83.962 8.949,-83.962 c -1.472,0 -3.095,0.029 -4.868,0.092 -24.977,0.859 -43.41,8.384 -55.648,21.14 -12.268,12.783 -18.215,30.689 -18.215,52.295 0,1.204 0.027,2.6 0.082,4.187 0.335,9.751 5.559,18.643 12.939,25.228 7.932,7.079 18.432,11.542 28.024,11.542 7.907,0 15.921,-3.02 22.252,-8.54 C -0.691,16.931 3.69,9.783 5.281,0.946 Z"
             style="fill:#110f0d;fill-opacity:1;fill-rule:evenodd;stroke:none"
             id="path14814" />
        </g>
        <g
           id="g14816"
           transform="translate(325.3018,96.9268)">
          <path
             d="m 0,0 c 7.1,-0.117 13.236,22.786 13.353,29.888 0.054,3.22 -1.082,6.182 -3,8.469 -2.285,2.724 -3.375,5.799 -3.318,9.353 l 0.049,2.903 -12.5,0.206 -0.048,-2.904 C -5.522,44.36 -6.714,41.323 -9.086,38.678 -11.079,36.455 -12.311,33.53 -12.364,30.311 -12.479,23.208 -7.102,0.115 0,0"
             style="fill:#fab40a;fill-opacity:1;fill-rule:evenodd;stroke:none"
             id="path14818" />
        </g>
        <g
           id="g14820"
           transform="translate(329.1797,99.0537)">
          <path
             d="M 0,0 C 5.321,5.826 9.381,21.997 9.476,27.761 9.529,30.982 8.393,33.943 6.475,36.23 4.19,38.954 3.1,42.029 3.157,45.583 l 0.049,2.903 -12.5,0.206 -0.008,-0.503 8.549,-0.14 -0.055,-3.344 C -0.875,40.611 0.207,37.074 2.485,33.945 4.398,31.315 5.526,27.906 5.465,24.197 5.386,19.394 3.217,8.307 0,0"
             style="fill:#f2a50f;fill-opacity:1;fill-rule:evenodd;stroke:none"
             id="path14822" />
        </g>
        <g
           id="g14824"
           transform="translate(323.9814,98.0986)">
          <path
             d="m 0,0 c 2.219,-0.037 2.834,6.081 1.372,13.665 -1.463,7.584 -4.449,13.762 -6.669,13.8 C -7.516,27.5 -8.131,21.382 -6.669,13.796 -5.206,6.212 -2.221,0.036 0,0"
             style="fill:#fbc71b;fill-opacity:1;fill-rule:evenodd;stroke:none"
             id="path14826" />
        </g>
        <g
           id="g14828"
           transform="translate(317.7891,142.5703)">
          <path
             d="m 0,0 16.523,-0.272 0.218,13.289 c 0.074,4.544 -3.582,8.324 -8.126,8.399 -4.543,0.073 -8.323,-3.583 -8.397,-8.128 z"
             style="fill:#1c1a19;fill-opacity:1;fill-rule:evenodd;stroke:none"
             id="path14830" />
        </g>
        <g
           id="g14832"
           transform="translate(318.2188,142.5625)">
          <path
             d="m 0,0 11.998,-0.197 0.186,11.386 c 0.056,3.299 -2.6,6.042 -5.9,6.097 -3.298,0.054 -6.042,-2.6 -6.097,-5.899 z"
             style="fill:#2c2b2a;fill-opacity:1;fill-rule:evenodd;stroke:none"
             id="path14834" />
        </g>
        <g
           id="g14836"
           transform="translate(318.7598,142.5527)">
          <path
             d="M 0,0 9.405,-0.153 9.553,8.774 C 9.595,11.362 7.514,13.512 4.926,13.556 2.34,13.598 0.187,11.516 0.145,8.93 Z"
             style="fill:#3f3f40;fill-opacity:1;fill-rule:evenodd;stroke:none"
             id="path14838" />
        </g>
        <g
           id="g14840"
           transform="translate(232.481,116.1416)">
          <path
             d="m 0,0 c 6.513,-2.834 20.971,15.957 23.807,22.47 1.285,2.952 1.374,6.124 0.48,8.972 -1.063,3.394 -0.891,6.65 0.528,9.91 0.386,0.886 0.773,1.774 1.159,2.662 -3.821,1.662 -7.642,3.326 -11.462,4.988 C 14.125,48.115 13.739,47.227 13.352,46.34 11.934,43.082 9.669,40.734 6.462,39.201 3.767,37.914 1.507,35.686 0.222,32.734 -2.612,26.223 -6.513,2.834 0,0"
             style="fill:#f47051;fill-opacity:1;fill-rule:evenodd;stroke:none"
             id="path14842" />
        </g>
        <g
           id="g14844"
           transform="translate(236.8774,116.6162)">
          <path
             d="m 0,0 c 7.152,3.338 17.109,16.709 19.409,21.995 1.285,2.952 1.375,6.124 0.482,8.973 -1.064,3.393 -0.891,6.649 0.528,9.909 0.386,0.887 0.772,1.774 1.158,2.662 -3.82,1.662 -7.641,3.326 -11.462,4.99 -0.066,-0.154 -0.133,-0.309 -0.2,-0.462 2.613,-1.137 5.227,-2.275 7.839,-3.413 -0.445,-1.021 -0.891,-2.043 -1.335,-3.065 -1.633,-3.753 -1.992,-7.436 -1.091,-11.199 0.757,-3.162 0.49,-6.744 -0.99,-10.144 C 12.421,15.84 6.159,6.436 0,0"
             style="fill:#f25130;fill-opacity:1;fill-rule:evenodd;stroke:none"
             id="path14846" />
        </g>
        <g
           id="g14848"
           transform="translate(231.7114,117.7295)">
          <path
             d="M 0,0 C 2.036,-0.885 4.952,4.527 6.514,12.093 8.075,19.656 7.69,26.508 5.654,27.392 3.619,28.279 0.702,22.865 -0.859,15.302 -2.421,7.736 -2.035,0.887 0,0"
             style="fill:#f7927a;fill-opacity:1;fill-rule:evenodd;stroke:none"
             id="path14850" />
        </g>
        <g
           id="g14852"
           transform="translate(243.0688,161.1709)">
          <path
             d="m 0,0 c 5.051,-2.197 10.102,-4.396 15.151,-6.594 1.77,4.063 3.538,8.125 5.305,12.188 1.815,4.165 -0.111,9.058 -4.277,10.871 H 16.178 C 12.011,18.28 7.118,16.355 5.305,12.186 3.537,8.124 1.769,4.062 0,0"
             style="fill:#1c1a19;fill-opacity:1;fill-rule:evenodd;stroke:none"
             id="path14854" />
        </g>
        <g
           id="g14856"
           transform="translate(243.4644,160.999)">
          <path
             d="m 0,0 c 3.667,-1.597 7.335,-3.193 11.001,-4.789 1.516,3.481 3.03,6.961 4.545,10.441 1.317,3.026 -0.08,6.578 -3.106,7.896 H 12.439 C 9.413,14.865 5.861,13.467 4.544,10.441 3.029,6.961 1.515,3.482 0,0"
             style="fill:#2c2b2a;fill-opacity:1;fill-rule:evenodd;stroke:none"
             id="path14858" />
        </g>
        <g
           id="g14860"
           transform="translate(243.9575,160.7832)">
          <path
             d="m 0,0 c 2.877,-1.25 5.752,-2.503 8.627,-3.753 1.188,2.729 2.376,5.458 3.563,8.188 1.033,2.371 -0.063,5.155 -2.435,6.19 H 9.754 C 7.382,11.656 4.598,10.561 3.565,8.188 2.376,5.459 1.189,2.729 0,0"
             style="fill:#3f3f40;fill-opacity:1;fill-rule:evenodd;stroke:none"
             id="path14862" />
        </g>
        <g
           id="g14864"
           transform="translate(154.5254,171.4199)">
          <path
             d="m 0,0 c 4.773,-5.261 25.676,5.932 30.936,10.703 2.385,2.164 3.77,5.019 4.125,7.984 0.425,3.528 1.922,6.428 4.554,8.815 0.716,0.65 1.434,1.302 2.151,1.952 -2.801,3.085 -5.601,6.173 -8.4,9.257 -0.718,-0.649 -1.435,-1.3 -2.151,-1.95 -2.632,-2.387 -5.662,-3.597 -9.216,-3.678 -2.985,-0.065 -5.96,-1.167 -8.346,-3.331 C 8.393,24.98 -4.773,5.26 0,0"
             style="fill:#badf33;fill-opacity:1;fill-rule:evenodd;stroke:none"
             id="path14866" />
        </g>
        <g
           id="g14868"
           transform="translate(158.729,170.0449)">
          <path
             d="m 0,0 c 7.892,0.104 22.464,8.205 26.732,12.078 2.386,2.164 3.77,5.019 4.126,7.984 0.424,3.528 1.921,6.428 4.554,8.815 0.716,0.65 1.433,1.3 2.149,1.952 -2.799,3.085 -5.599,6.173 -8.399,9.257 -0.124,-0.112 -0.248,-0.225 -0.372,-0.337 1.914,-2.109 3.83,-4.222 5.745,-6.331 -0.826,-0.75 -1.651,-1.499 -2.477,-2.247 C 29.027,28.421 27.186,25.21 26.46,21.409 25.852,18.214 24.137,15.06 21.391,12.567 17.832,9.338 8.26,3.338 0,0"
             style="fill:#a8d51c;fill-opacity:1;fill-rule:evenodd;stroke:none"
             id="path14870" />
        </g>
        <g
           id="g14872"
           transform="translate(154.4771,173.1846)">
          <path
             d="m 0,0 c 1.491,-1.646 6.374,2.092 10.906,8.348 4.532,6.253 6.997,12.657 5.505,14.302 C 14.919,24.294 10.036,20.557 5.503,14.301 0.973,8.048 -1.492,1.645 0,0"
             style="fill:#c6e446;fill-opacity:1;fill-rule:evenodd;stroke:none"
             id="path14874" />
        </g>
        <g
           id="g14876"
           transform="translate(182.6812,208.1221)">
          <path
             d="m 0,0 c 3.701,-4.08 7.402,-8.159 11.104,-12.239 3.281,2.978 6.563,5.955 9.843,8.932 3.366,3.053 3.621,8.306 0.568,11.672 H 21.514 C 18.461,11.73 13.209,11.985 9.844,8.931 6.562,5.954 3.281,2.977 0,0"
             style="fill:#1c1a19;fill-opacity:1;fill-rule:evenodd;stroke:none"
             id="path14878" />
        </g>
        <g
           id="g14880"
           transform="translate(182.9712,207.8027)">
          <path
             d="m 0,0 c 2.687,-2.962 5.374,-5.925 8.062,-8.887 2.811,2.55 5.623,5.103 8.434,7.653 2.443,2.216 2.628,6.031 0.412,8.474 C 14.69,9.685 10.876,9.868 8.434,7.651 5.622,5.1 2.811,2.55 0,0"
             style="fill:#2c2b2a;fill-opacity:1;fill-rule:evenodd;stroke:none"
             id="path14882" />
        </g>
        <g
           id="g14884"
           transform="translate(183.3325,207.4033)">
          <path
             d="m 0,0 c 2.107,-2.322 4.215,-4.643 6.322,-6.967 2.204,2 4.408,3.999 6.613,5.999 1.915,1.739 2.062,4.73 0.323,6.646 H 13.257 C 11.519,7.593 8.529,7.738 6.612,5.999 4.409,3.999 2.205,2 0,0"
             style="fill:#3f3f40;fill-opacity:1;fill-rule:evenodd;stroke:none"
             id="path14886" />
        </g>
        <g
           id="g14888"
           transform="translate(108.5664,258.0381)">
          <path
             d="m 0,0 c 1.643,-6.91 25.352,-7.195 32.261,-5.553 3.134,0.744 5.724,2.578 7.466,5.001 2.074,2.888 4.784,4.705 8.242,5.526 0.942,0.222 1.883,0.448 2.826,0.672 -0.964,4.053 -1.927,8.107 -2.891,12.161 -0.942,-0.223 -1.883,-0.447 -2.825,-0.671 -3.458,-0.821 -6.695,-0.418 -9.846,1.226 -2.647,1.382 -5.785,1.854 -8.919,1.109 C 19.405,17.829 -1.642,6.909 0,0"
             style="fill:#978ecf;fill-opacity:1;fill-rule:evenodd;stroke:none"
             id="path14890" />
        </g>
        <g
           id="g14892"
           transform="translate(111.5854,254.8057)">
          <path
             d="m 0,0 c 6.962,-3.717 23.634,-3.653 29.242,-2.32 3.133,0.744 5.724,2.578 7.466,5.001 2.074,2.885 4.784,4.705 8.242,5.525 0.942,0.223 1.883,0.448 2.825,0.672 -0.963,4.054 -1.926,8.107 -2.89,12.161 -0.163,-0.038 -0.326,-0.077 -0.489,-0.115 0.659,-2.773 1.317,-5.545 1.977,-8.319 -1.085,-0.257 -2.17,-0.513 -3.254,-0.773 C 39.137,10.887 35.976,8.964 33.506,5.982 31.431,3.478 28.407,1.542 24.799,0.686 20.125,-0.425 8.846,-1.062 0,0"
             style="fill:#7570bf;fill-opacity:1;fill-rule:evenodd;stroke:none"
             id="path14894" />
        </g>
        <g
           id="g14896"
           transform="translate(109.376,259.6064)">
          <path
             d="M 0,0 C 0.512,-2.159 6.593,-1.243 13.58,2.049 20.568,5.341 25.816,9.76 25.302,11.92 24.789,14.08 18.708,13.163 11.721,9.872 4.734,6.58 -0.514,2.16 0,0"
             style="fill:#c7bde4;fill-opacity:1;fill-rule:evenodd;stroke:none"
             id="path14898" />
        </g>
        <g
           id="g14900"
           transform="translate(150.9375,276.5986)">
          <path
             d="m 0,0 c 1.273,-5.358 2.546,-10.717 3.82,-16.076 4.311,1.023 8.621,2.048 12.932,3.071 4.421,1.052 7.179,5.528 6.129,9.949 v 10e-4 C 21.829,1.367 17.353,4.124 12.931,3.073 8.621,2.049 4.311,1.024 0,0"
             style="fill:#1c1a19;fill-opacity:1;fill-rule:evenodd;stroke:none"
             id="path14902" />
        </g>
        <g
           id="g14904"
           transform="translate(151.0371,276.1787)">
          <path
             d="m 0,0 c 0.924,-3.892 1.849,-7.781 2.773,-11.672 3.694,0.876 7.387,1.753 11.081,2.631 3.209,0.763 5.212,4.014 4.448,7.224 v 10e-4 C 17.54,1.394 14.29,3.396 11.08,2.633 7.386,1.756 3.693,0.878 0,0"
             style="fill:#2c2b2a;fill-opacity:1;fill-rule:evenodd;stroke:none"
             id="path14906" />
        </g>
        <g
           id="g14908"
           transform="translate(151.1616,275.6553)">
          <path
             d="m 0,0 c 0.726,-3.051 1.45,-6.102 2.176,-9.153 2.895,0.688 5.79,1.376 8.686,2.063 2.517,0.599 4.087,3.148 3.489,5.665 C 13.753,1.092 11.205,2.662 8.687,2.064 5.791,1.376 2.896,0.687 0,0"
             style="fill:#3f3f40;fill-opacity:1;fill-rule:evenodd;stroke:none"
             id="path14910" />
        </g>
        <g
           id="g14912"
           transform="translate(107.0918,354.1201)">
          <path
             d="m 0,0 c -1.461,-6.95 19.865,-17.314 26.816,-18.775 3.152,-0.661 6.276,-0.109 8.886,1.342 3.107,1.727 6.332,2.214 9.811,1.484 0.946,-0.199 1.894,-0.399 2.841,-0.597 0.857,4.078 1.714,8.156 2.571,12.235 -0.948,0.199 -1.895,0.398 -2.842,0.597 -3.478,0.731 -6.235,2.475 -8.384,5.307 C 37.894,3.971 35.256,5.734 32.104,6.397 25.153,7.857 1.46,6.951 0,0"
             style="fill:#fab40a;fill-opacity:1;fill-rule:evenodd;stroke:none"
             id="path14914" />
        </g>
        <g
           id="g14916"
           transform="translate(108.4453,349.9102)">
          <path
             d="m 0,0 c 4.713,-6.33 19.822,-13.38 25.463,-14.564 3.152,-0.663 6.276,-0.11 8.886,1.341 3.107,1.727 6.332,2.215 9.81,1.484 0.948,-0.2 1.895,-0.399 2.842,-0.597 0.856,4.078 1.713,8.156 2.57,12.234 -0.164,0.035 -0.328,0.069 -0.492,0.104 -0.586,-2.789 -1.172,-5.579 -1.758,-8.367 -1.091,0.229 -2.181,0.458 -3.272,0.687 -4.006,0.842 -7.685,0.449 -11.189,-1.194 -2.945,-1.38 -6.506,-1.842 -10.135,-1.079 C 18.023,-8.963 7.548,-4.732 0,0"
             style="fill:#f2a50f;fill-opacity:1;fill-rule:evenodd;stroke:none"
             id="path14918" />
        </g>
        <g
           id="g14920"
           transform="translate(108.4922,355.1953)">
          <path
             d="m 0,0 c -0.456,-2.173 5.435,-3.935 13.159,-3.936 7.723,-0.002 14.355,1.759 14.812,3.932 C 28.427,2.169 22.536,3.932 14.812,3.932 7.088,3.934 0.457,2.173 0,0"
             style="fill:#fbc71b;fill-opacity:1;fill-rule:evenodd;stroke:none"
             id="path14922" />
        </g>
        <g
           id="g14924"
           transform="translate(153.3325,352.8477)">
          <path
             d="m 0,0 c -1.133,-5.391 -2.265,-10.78 -3.398,-16.171 4.337,-0.911 8.672,-1.821 13.008,-2.732 4.447,-0.935 8.85,1.938 9.785,6.385 0.934,4.449 -1.94,8.851 -6.387,9.786 C 8.671,-1.821 4.336,-0.911 0,0"
             style="fill:#1c1a19;fill-opacity:1;fill-rule:evenodd;stroke:none"
             id="path14926" />
        </g>
        <g
           id="g14928"
           transform="translate(153.2437,352.4268)">
          <path
             d="m 0,0 c -0.822,-3.915 -1.645,-7.828 -2.467,-11.743 3.714,-0.78 7.429,-1.561 11.145,-2.341 3.228,-0.679 6.426,1.408 7.104,4.638 0.678,3.229 -1.409,6.425 -4.638,7.104 C 7.429,-1.562 3.714,-0.781 0,0"
             style="fill:#2c2b2a;fill-opacity:1;fill-rule:evenodd;stroke:none"
             id="path14930" />
        </g>
        <g
           id="g14932"
           transform="translate(153.1323,351.8984)">
          <path
             d="m 0,0 c -0.645,-3.068 -1.288,-6.138 -1.934,-9.206 2.913,-0.612 5.826,-1.225 8.739,-1.836 2.532,-0.532 5.038,1.104 5.569,3.636 v 10e-4 c 0.533,2.531 -1.103,5.038 -3.636,5.57 C 5.826,-1.224 2.914,-0.611 0,0"
             style="fill:#3f3f40;fill-opacity:1;fill-rule:evenodd;stroke:none"
             id="path14934" />
        </g>
        <g
           id="g14936"
           transform="translate(150.9102,440.8672)">
          <path
             d="m 0,0 c -4.49,-5.503 9.69,-24.507 15.192,-28.996 2.495,-2.037 5.525,-2.981 8.51,-2.892 3.552,0.107 6.641,-0.942 9.395,-3.189 0.751,-0.612 1.5,-1.224 2.25,-1.836 2.635,3.229 5.269,6.456 7.903,9.685 -0.749,0.613 -1.499,1.225 -2.249,1.837 -2.754,2.247 -4.4,5.063 -5.008,8.564 -0.511,2.943 -2.043,5.722 -4.539,7.758 C 25.952,-4.579 4.491,5.503 0,0"
             style="fill:#f47051;fill-opacity:1;fill-rule:evenodd;stroke:none"
             id="path14938" />
        </g>
        <g
           id="g14940"
           transform="translate(150.1787,436.5059)">
          <path
             d="m 0,0 c 1.277,-7.788 11.458,-20.991 15.923,-24.636 2.496,-2.035 5.525,-2.979 8.51,-2.89 3.552,0.106 6.641,-0.942 9.395,-3.19 0.751,-0.612 1.5,-1.224 2.25,-1.836 2.635,3.229 5.269,6.457 7.903,9.686 -0.128,0.105 -0.259,0.212 -0.388,0.318 -1.802,-2.208 -3.604,-4.416 -5.407,-6.624 -0.863,0.704 -1.726,1.409 -2.59,2.114 -3.171,2.588 -6.619,3.929 -10.487,4.08 -3.249,0.126 -6.625,1.353 -9.498,3.698 C 11.889,-16.242 4.529,-7.672 0,0"
             style="fill:#f25130;fill-opacity:1;fill-rule:evenodd;stroke:none"
             id="path14942" />
        </g>
        <g
           id="g14944"
           transform="translate(152.6475,441.1782)">
          <path
             d="m 0,0 c -1.402,-1.72 3.02,-5.992 9.88,-9.542 6.86,-3.55 13.559,-5.032 14.963,-3.312 1.403,1.72 -3.02,5.992 -9.88,9.541 C 8.105,0.237 1.405,1.72 0,0"
             style="fill:#f7927a;fill-opacity:1;fill-rule:evenodd;stroke:none"
             id="path14946" />
        </g>
        <g
           id="g14948"
           transform="translate(191.397,418.4917)">
          <path
             d="m 0,0 c -3.482,-4.268 -6.965,-8.535 -10.448,-12.802 3.433,-2.802 6.865,-5.603 10.298,-8.404 3.521,-2.873 8.752,-2.344 11.625,1.177 h 0.001 c 2.873,3.521 2.343,8.752 -1.178,11.626 C 6.866,-5.603 3.433,-2.801 0,0"
             style="fill:#1c1a19;fill-opacity:1;fill-rule:evenodd;stroke:none"
             id="path14950" />
        </g>
        <g
           id="g14952"
           transform="translate(191.1245,418.1572)">
          <path
             d="m 0,0 c -2.529,-3.098 -5.058,-6.196 -7.586,-9.295 2.94,-2.4 5.881,-4.8 8.823,-7.2 2.556,-2.086 6.354,-1.702 8.44,0.854 0.001,0 0.001,0 0.001,10e-4 2.086,2.557 1.7,6.355 -0.855,8.44 C 5.882,-4.799 2.94,-2.4 0,0"
             style="fill:#2c2b2a;fill-opacity:1;fill-rule:evenodd;stroke:none"
             id="path14954" />
        </g>
        <g
           id="g14956"
           transform="translate(190.7837,417.7402)">
          <path
             d="m 0,0 c -1.982,-2.43 -3.965,-4.859 -5.948,-7.289 2.306,-1.882 4.612,-3.763 6.918,-5.645 2.004,-1.636 4.982,-1.334 6.618,0.67 1.636,2.005 1.334,4.983 -0.67,6.619 C 4.612,-3.763 2.307,-1.881 0,0"
             style="fill:#3f3f40;fill-opacity:1;fill-rule:evenodd;stroke:none"
             id="path14958" />
        </g>
        <g
           id="g14960"
           transform="translate(226.646,499.0264)">
          <path
             d="m 0,0 c -6.34,-3.204 -1.106,-26.329 2.098,-32.668 1.452,-2.874 3.837,-4.968 6.6,-6.099 3.289,-1.346 5.686,-3.559 7.289,-6.733 0.437,-0.863 0.873,-1.727 1.31,-2.591 3.719,1.88 7.438,3.759 11.157,5.638 -0.436,0.864 -0.873,1.728 -1.31,2.592 -1.602,3.172 -1.962,6.415 -1.095,9.861 0.729,2.895 0.458,6.057 -0.995,8.932 C 21.851,-14.729 6.339,3.203 0,0"
             style="fill:#badf33;fill-opacity:1;fill-rule:evenodd;stroke:none"
             id="path14962" />
        </g>
        <g
           id="g14964"
           transform="translate(224.2046,495.3389)">
          <path
             d="m 0,0 c -1.997,-7.635 1.94,-23.836 4.539,-28.98 1.452,-2.875 3.837,-4.968 6.601,-6.1 3.289,-1.346 5.685,-3.559 7.289,-6.731 0.436,-0.864 0.873,-1.728 1.309,-2.591 3.719,1.879 7.439,3.758 11.157,5.637 -0.075,0.15 -0.151,0.299 -0.226,0.449 -2.543,-1.285 -5.088,-2.57 -7.631,-3.856 -0.503,0.995 -1.005,1.989 -1.508,2.985 -1.845,3.653 -4.451,6.28 -7.924,7.989 -2.918,1.436 -5.504,3.928 -7.176,7.238 C 4.264,-19.672 1.021,-8.85 0,0"
             style="fill:#a8d51c;fill-opacity:1;fill-rule:evenodd;stroke:none"
             id="path14966" />
        </g>
        <g
           id="g14968"
           transform="translate(228.3599,498.6055)">
          <path
             d="m 0,0 c -1.982,-1.002 0.324,-6.703 5.149,-12.734 4.826,-6.03 10.344,-10.107 12.326,-9.107 1.982,1.002 -0.324,6.702 -5.149,12.733 C 7.5,-3.077 1.982,1 0,0"
             style="fill:#c6e446;fill-opacity:1;fill-rule:evenodd;stroke:none"
             id="path14970" />
        </g>
        <g
           id="g14972"
           transform="translate(254.5464,462.1304)">
          <path
             d="m 0,0 c -4.916,-2.484 -9.832,-4.969 -14.748,-7.452 1.998,-3.955 3.996,-7.909 5.995,-11.864 2.048,-4.056 7.044,-5.697 11.1,-3.648 4.056,2.05 5.697,7.045 3.648,11.1 C 3.997,-7.908 1.999,-3.955 0,0"
             style="fill:#1c1a19;fill-opacity:1;fill-rule:evenodd;stroke:none"
             id="path14974" />
        </g>
        <g
           id="g14976"
           transform="translate(254.1616,461.936)">
          <path
             d="m 0,0 c -3.569,-1.804 -7.139,-3.608 -10.709,-5.411 1.712,-3.388 3.424,-6.776 5.136,-10.164 1.488,-2.946 5.115,-4.137 8.059,-2.649 h 10e-4 c 2.945,1.489 4.137,5.115 2.649,8.06 C 3.424,-6.776 1.712,-3.388 0,0"
             style="fill:#2c2b2a;fill-opacity:1;fill-rule:evenodd;stroke:none"
             id="path14978" />
        </g>
        <g
           id="g14980"
           transform="translate(253.6812,461.6929)">
          <path
             d="m 0,0 c -2.799,-1.414 -5.599,-2.828 -8.396,-4.243 1.341,-2.656 2.684,-5.313 4.027,-7.969 1.166,-2.309 4.009,-3.244 6.319,-2.077 v 0 c 2.309,1.167 3.243,4.011 2.077,6.32 C 2.685,-5.313 1.342,-2.656 0,0"
             style="fill:#3f3f40;fill-opacity:1;fill-rule:evenodd;stroke:none"
             id="path14982" />
        </g>
        <g
           id="g14984"
           transform="translate(320.0811,521.4082)">
          <path
             d="m 0,0 c -7.1,-0.216 -12.155,-23.38 -11.939,-30.48 0.096,-3.219 1.368,-6.126 3.393,-8.321 2.409,-2.613 3.641,-5.634 3.75,-9.187 0.027,-0.967 0.059,-1.934 0.087,-2.902 4.166,0.127 8.331,0.253 12.496,0.379 -0.031,0.968 -0.058,1.936 -0.089,2.903 -0.107,3.553 0.94,6.642 3.186,9.397 1.887,2.314 2.981,5.292 2.884,8.511 C 13.553,-22.601 7.1,0.215 0,0"
             style="fill:#978ecf;fill-opacity:1;fill-rule:evenodd;stroke:none"
             id="path14986" />
        </g>
        <g
           id="g14988"
           transform="translate(316.3086,519.1025)">
          <path
             d="m 0,0 c -5.046,-6.07 -8.342,-22.413 -8.169,-28.174 0.099,-3.219 1.37,-6.126 3.396,-8.321 2.409,-2.613 3.64,-5.634 3.75,-9.187 0.027,-0.967 0.057,-1.934 0.087,-2.902 4.165,0.127 8.331,0.253 12.496,0.379 -0.006,0.167 -0.011,0.335 -0.016,0.503 -2.85,-0.087 -5.696,-0.173 -8.546,-0.259 -0.034,1.113 -0.067,2.228 -0.101,3.342 -0.125,4.091 -1.371,7.574 -3.793,10.594 -2.034,2.538 -3.322,5.891 -3.432,9.597 C -4.474,-19.626 -2.825,-8.449 0,0"
             style="fill:#7570bf;fill-opacity:1;fill-rule:evenodd;stroke:none"
             id="path14990" />
        </g>
        <g
           id="g14992"
           transform="translate(321.4561,520.2988)">
          <path
             d="m 0,0 c -2.219,-0.066 -2.547,-6.207 -0.73,-13.714 1.815,-7.508 5.084,-13.539 7.305,-13.471 2.219,0.067 2.545,6.207 0.732,13.714 C 5.49,-5.963 2.219,0.068 0,0"
             style="fill:#c7bde4;fill-opacity:1;fill-rule:evenodd;stroke:none"
             id="path14994" />
        </g>
        <g
           id="g14996"
           transform="translate(329.7217,476.165)">
          <path
             d="m 0,0 c -5.506,-0.167 -11.012,-0.334 -16.519,-0.501 0.135,-4.428 0.27,-8.856 0.404,-13.285 0.137,-4.542 3.968,-8.147 8.508,-8.008 4.544,0.138 8.147,3.966 8.008,8.508 C 0.268,-8.857 0.134,-4.428 0,0"
             style="fill:#1c1a19;fill-opacity:1;fill-rule:evenodd;stroke:none"
             id="path14998" />
        </g>
        <g
           id="g15000"
           transform="translate(329.29,476.1523)">
          <path
             d="m 0,0 c -3.998,-0.121 -7.996,-0.243 -11.993,-0.364 0.116,-3.794 0.23,-7.588 0.344,-11.382 0.1,-3.298 2.881,-5.915 6.179,-5.815 3.298,0.1 5.914,2.88 5.814,6.179 C 0.23,-7.588 0.114,-3.794 0,0"
             style="fill:#2c2b2a;fill-opacity:1;fill-rule:evenodd;stroke:none"
             id="path15002" />
        </g>
        <g
           id="g15004"
           transform="translate(328.751,476.1357)">
          <path
             d="m 0,0 c -3.136,-0.095 -6.27,-0.19 -9.404,-0.286 0.09,-2.974 0.181,-5.949 0.272,-8.924 0.078,-2.586 2.258,-4.638 4.844,-4.558 2.587,0.078 4.637,2.257 4.558,4.844 C 0.18,-5.95 0.09,-2.975 0,0"
             style="fill:#3f3f40;fill-opacity:1;fill-rule:evenodd;stroke:none"
             id="path15006" />
        </g>
        <g
           id="g15008"
           transform="translate(415.2021,499.5122)">
          <path
             d="m 0,0 c -6.359,3.165 -21.763,-14.859 -24.929,-21.217 -1.435,-2.883 -1.687,-6.046 -0.942,-8.937 0.888,-3.442 0.547,-6.686 -1.037,-9.868 -0.432,-0.867 -0.863,-1.733 -1.294,-2.6 3.731,-1.856 7.461,-3.714 11.19,-5.571 0.433,0.867 0.865,1.733 1.295,2.6 1.585,3.181 3.967,5.409 7.248,6.775 2.758,1.147 5.13,3.255 6.565,6.137 C 1.261,-26.321 6.357,-3.165 0,0"
             style="fill:#fab40a;fill-opacity:1;fill-rule:evenodd;stroke:none"
             id="path15010" />
        </g>
        <g
           id="g15012"
           transform="translate(410.7871,499.2632)">
          <path
             d="m 0,0 c -7.314,-2.964 -17.945,-15.807 -20.514,-20.968 -1.435,-2.883 -1.688,-6.046 -0.942,-8.937 0.888,-3.441 0.547,-6.686 -1.037,-9.867 -0.432,-0.868 -0.862,-1.734 -1.294,-2.601 3.731,-1.856 7.461,-3.714 11.19,-5.571 0.076,0.151 0.15,0.301 0.225,0.45 -2.551,1.27 -5.103,2.54 -7.654,3.811 0.497,0.997 0.994,1.995 1.491,2.994 1.824,3.663 2.371,7.322 1.665,11.128 -0.594,3.197 -0.142,6.76 1.511,10.079 C -13.219,-15.18 -6.483,-6.111 0,0"
             style="fill:#f2a50f;fill-opacity:1;fill-rule:evenodd;stroke:none"
             id="path15014" />
        </g>
        <g
           id="g15016"
           transform="translate(415.8877,497.8857)">
          <path
             d="m 0,0 c -1.985,0.99 -5.176,-4.267 -7.126,-11.741 -1.947,-7.474 -1.916,-14.335 0.072,-15.324 1.988,-0.99 5.178,4.266 7.126,11.741 C 2.02,-7.85 1.989,-0.99 0,0"
             style="fill:#fbc71b;fill-opacity:1;fill-rule:evenodd;stroke:none"
             id="path15018" />
        </g>
        <g
           id="g15020"
           transform="translate(402.3135,455.0854)">
          <path
             d="m 0,0 c -4.931,2.455 -9.862,4.911 -14.793,7.365 -1.975,-3.966 -3.948,-7.932 -5.923,-11.899 -2.026,-4.067 -0.355,-9.053 3.714,-11.078 4.068,-2.026 9.053,-0.354 11.077,3.714 C -3.948,-7.933 -1.975,-3.965 0,0"
             style="fill:#1c1a19;fill-opacity:1;fill-rule:evenodd;stroke:none"
             id="path15022" />
        </g>
        <g
           id="g15024"
           transform="translate(401.9277,455.2773)">
          <path
             d="m 0,0 c -3.58,1.783 -7.161,3.565 -10.74,5.348 -1.693,-3.398 -3.384,-6.796 -5.076,-10.195 -1.471,-2.952 -0.256,-6.572 2.696,-8.043 2.955,-1.471 6.573,-0.257 8.045,2.697 C -3.385,-6.795 -1.692,-3.397 0,0"
             style="fill:#2c2b2a;fill-opacity:1;fill-rule:evenodd;stroke:none"
             id="path15026" />
        </g>
        <g
           id="g15028"
           transform="translate(401.4453,455.5181)">
          <path
             d="m 0,0 c -2.807,1.398 -5.614,2.795 -8.422,4.193 -1.326,-2.664 -2.653,-5.329 -3.979,-7.993 -1.154,-2.316 -0.202,-5.154 2.114,-6.308 h 0.001 c 2.315,-1.152 5.153,-0.201 6.308,2.115 C -2.653,-5.329 -1.327,-2.664 0,0"
             style="fill:#3f3f40;fill-opacity:1;fill-rule:evenodd;stroke:none"
             id="path15030" />
        </g>
        <g
           id="g15032"
           transform="translate(486.8008,426.521)">
          <path
             d="m 0,0 c -3.148,6.367 -26.318,1.332 -32.685,-1.816 -2.887,-1.428 -5.001,-3.794 -6.156,-6.548 -1.375,-3.277 -3.609,-5.655 -6.795,-7.231 -0.867,-0.428 -1.734,-0.857 -2.603,-1.286 1.846,-3.735 3.695,-7.471 5.542,-11.207 0.869,0.43 1.736,0.859 2.603,1.288 3.186,1.575 6.431,1.907 9.87,1.01 2.89,-0.754 6.054,-0.509 8.94,0.918 C -14.917,-21.724 3.147,-6.367 0,0"
             style="fill:#f47051;fill-opacity:1;fill-rule:evenodd;stroke:none"
             id="path15034" />
        </g>
        <g
           id="g15036"
           transform="translate(483.1348,428.9941)">
          <path
             d="m 0,0 c -7.618,2.064 -23.852,-1.734 -29.019,-4.289 -2.887,-1.428 -5.002,-3.794 -6.156,-6.548 -1.375,-3.278 -3.609,-5.655 -6.795,-7.231 -0.867,-0.428 -1.734,-0.857 -2.603,-1.287 1.848,-3.735 3.695,-7.47 5.542,-11.206 0.15,0.075 0.301,0.149 0.452,0.223 -1.265,2.555 -2.526,5.11 -3.791,7.664 0.999,0.494 1.999,0.989 2.997,1.482 3.67,1.815 6.318,4.398 8.058,7.856 1.461,2.905 3.976,5.469 7.299,7.112 C -19.708,-4.093 -8.859,-0.946 0,0"
             style="fill:#f25130;fill-opacity:1;fill-rule:evenodd;stroke:none"
             id="path15038" />
        </g>
        <g
           id="g15040"
           transform="translate(486.3643,424.8101)">
          <path
             d="m 0,0 c -0.984,1.991 -6.704,-0.266 -12.777,-5.038 -6.072,-4.774 -10.197,-10.256 -9.212,-12.247 0.984,-1.99 6.704,0.266 12.775,5.039 C -3.141,-7.472 0.984,-1.99 0,0"
             style="fill:#f7927a;fill-opacity:1;fill-rule:evenodd;stroke:none"
             id="path15042" />
        </g>
        <g
           id="g15044"
           transform="translate(449.6641,398.9395)">
          <path
             d="m 0,0 c -2.441,4.938 -4.882,9.875 -7.324,14.813 -3.97,-1.964 -7.944,-3.928 -11.913,-5.893 -4.074,-2.014 -5.76,-6.995 -3.745,-11.068 2.014,-4.074 6.996,-5.759 11.069,-3.744 C -7.941,-3.928 -3.97,-1.964 0,0"
             style="fill:#1c1a19;fill-opacity:1;fill-rule:evenodd;stroke:none"
             id="path15046" />
        </g>
        <g
           id="g15048"
           transform="translate(449.4736,399.3262)">
          <path
             d="M 0,0 C -1.771,3.584 -3.545,7.17 -5.318,10.755 -8.722,9.072 -12.123,7.39 -15.525,5.707 -18.483,4.244 -19.707,0.627 -18.244,-2.33 v 0 c 1.462,-2.958 5.079,-4.181 8.037,-2.718 C -6.804,-3.365 -3.401,-1.683 0,0"
             style="fill:#2c2b2a;fill-opacity:1;fill-rule:evenodd;stroke:none"
             id="path15050" />
        </g>
        <g
           id="g15052"
           transform="translate(449.2344,399.8081)">
          <path
             d="m 0,0 c -1.389,2.812 -2.779,5.623 -4.17,8.434 -2.667,-1.319 -5.335,-2.639 -8.004,-3.958 -2.318,-1.147 -3.278,-3.982 -2.131,-6.302 1.147,-2.319 3.983,-3.278 6.303,-2.131 C -5.335,-2.638 -2.667,-1.318 0,0"
             style="fill:#3f3f40;fill-opacity:1;fill-rule:evenodd;stroke:none"
             id="path15054" />
        </g>
        <g
           id="g15056"
           transform="translate(501.3789,326.4863)">
          <path
             d="m 0,0 c 1.091,7.019 -20.752,16.241 -27.771,17.332 -3.182,0.495 -6.272,-0.224 -8.802,-1.809 -3.011,-1.889 -6.207,-2.546 -9.718,-2.001 -0.958,0.149 -1.914,0.297 -2.87,0.447 -0.64,-4.118 -1.28,-8.237 -1.921,-12.353 0.957,-0.149 1.913,-0.298 2.871,-0.447 3.511,-0.546 6.356,-2.143 8.652,-4.857 1.928,-2.279 4.655,-3.901 7.837,-4.396 C -24.703,-9.174 -1.092,-7.018 0,0"
             style="fill:#badf33;fill-opacity:1;fill-rule:evenodd;stroke:none"
             id="path15058" />
        </g>
        <g
           id="g15060"
           transform="translate(499.8047,330.6191)">
          <path
             d="m 0,0 c -5.041,6.072 -20.501,12.314 -26.196,13.199 -3.183,0.495 -6.273,-0.223 -8.803,-1.808 -3.011,-1.89 -6.206,-2.547 -9.718,-2.001 -0.958,0.148 -1.914,0.297 -2.87,0.446 -0.64,-4.118 -1.28,-8.236 -1.921,-12.353 0.166,-0.027 0.332,-0.051 0.497,-0.078 0.438,2.816 0.877,5.632 1.315,8.449 1.101,-0.171 2.203,-0.343 3.304,-0.514 4.043,-0.629 7.697,-0.042 11.111,1.784 2.867,1.533 6.397,2.183 10.063,1.613 C -18.472,8 -7.787,4.327 0,0"
             style="fill:#a8d51c;fill-opacity:1;fill-rule:evenodd;stroke:none"
             id="path15062" />
        </g>
        <g
           id="g15064"
           transform="translate(500.0371,325.3398)">
          <path
             d="m 0,0 c 0.341,2.193 -5.636,3.642 -13.348,3.235 -7.713,-0.407 -14.243,-2.515 -14.584,-4.71 -0.34,-2.194 5.636,-3.642 13.348,-3.235 C -6.87,-4.303 -0.341,-2.194 0,0"
             style="fill:#c6e446;fill-opacity:1;fill-rule:evenodd;stroke:none"
             id="path15066" />
        </g>
        <g
           id="g15068"
           transform="translate(455.1357,325.3135)">
          <path
             d="m 0,0 c 0.846,5.443 1.692,10.885 2.538,16.329 -4.378,0.68 -8.756,1.36 -13.134,2.041 -4.491,0.697 -8.735,-2.404 -9.432,-6.895 -0.699,-4.491 2.404,-8.736 6.893,-9.433 C -8.757,1.361 -4.378,0.681 0,0"
             style="fill:#1c1a19;fill-opacity:1;fill-rule:evenodd;stroke:none"
             id="path15070" />
        </g>
        <g
           id="g15072"
           transform="translate(455.2021,325.7402)">
          <path
             d="m 0,0 c 0.613,3.952 1.229,7.904 1.843,11.855 -3.751,0.583 -7.501,1.166 -11.252,1.75 -3.261,0.507 -6.344,-1.746 -6.85,-5.006 -0.507,-3.261 1.745,-6.343 5.006,-6.85 C -7.502,1.166 -3.75,0.582 0,0"
             style="fill:#2c2b2a;fill-opacity:1;fill-rule:evenodd;stroke:none"
             id="path15074" />
        </g>
        <g
           id="g15076"
           transform="translate(455.2842,326.2715)">
          <path
             d="m 0,0 c 0.481,3.1 0.965,6.198 1.445,9.297 -2.94,0.457 -5.881,0.914 -8.822,1.371 -2.557,0.397 -4.974,-1.369 -5.37,-3.925 V 6.742 C -13.146,4.186 -11.379,1.769 -8.822,1.372 -5.882,0.915 -2.94,0.457 0,0"
             style="fill:#3f3f40;fill-opacity:1;fill-rule:evenodd;stroke:none"
             id="path15078" />
        </g>
        <g
           id="g15080"
           transform="translate(448.9063,237.3672)">
          <path
             d="m 0,0 c 5.358,4.662 -5.4,25.793 -10.064,31.148 -2.115,2.43 -4.94,3.873 -7.897,4.291 -3.518,0.496 -6.386,2.052 -8.72,4.733 -0.636,0.73 -1.272,1.461 -1.906,2.19 -3.143,-2.736 -6.287,-5.471 -9.43,-8.208 0.636,-0.73 1.271,-1.46 1.907,-2.19 2.334,-2.681 3.479,-5.735 3.487,-9.29 0.005,-2.985 1.044,-5.985 3.158,-8.412 C -24.802,8.904 -5.357,-4.665 0,0"
             style="fill:#978ecf;fill-opacity:1;fill-rule:evenodd;stroke:none"
             id="path15082" />
        </g>
        <g
           id="g15084"
           transform="translate(450.3662,241.54)">
          <path
             d="m 0,0 c 0.06,7.893 -7.739,22.629 -11.524,26.976 -2.115,2.429 -4.941,3.872 -7.897,4.29 -3.518,0.496 -6.386,2.052 -8.72,4.733 -0.636,0.73 -1.272,1.461 -1.906,2.19 -3.143,-2.736 -6.287,-5.471 -9.43,-8.208 0.11,-0.125 0.219,-0.252 0.331,-0.378 2.149,1.871 4.299,3.742 6.448,5.613 0.732,-0.841 1.464,-1.682 2.194,-2.523 2.69,-3.087 5.859,-4.992 9.647,-5.795 3.181,-0.675 6.299,-2.457 8.734,-5.253 C -8.969,18.02 -3.166,8.328 0,0"
             style="fill:#7570bf;fill-opacity:1;fill-rule:evenodd;stroke:none"
             id="path15086" />
        </g>
        <g
           id="g15088"
           transform="translate(447.1416,237.3545)">
          <path
             d="m 0,0 c 1.675,1.456 -1.961,6.416 -8.122,11.076 -6.159,4.659 -12.51,7.255 -14.186,5.797 -1.674,-1.458 1.961,-6.417 8.123,-11.076 C -8.026,1.138 -1.676,-1.459 0,0"
             style="fill:#c7bde4;fill-opacity:1;fill-rule:evenodd;stroke:none"
             id="path15090" />
        </g>
        <g
           id="g15092"
           transform="translate(412.791,266.2725)">
          <path
             d="M 0,0 C 4.154,3.615 8.311,7.232 12.465,10.849 9.556,14.19 6.646,17.532 3.737,20.875 0.755,24.302 -4.492,24.665 -7.918,21.682 -11.346,18.697 -11.71,13.452 -8.726,10.025 -5.816,6.683 -2.907,3.34 0,0"
             style="fill:#1c1a19;fill-opacity:1;fill-rule:evenodd;stroke:none"
             id="path15094" />
        </g>
        <g
           id="g15096"
           transform="translate(413.1182,266.5547)">
          <path
             d="m 0,0 c 3.015,2.627 6.032,5.252 9.049,7.878 -2.491,2.863 -4.984,5.726 -7.476,8.59 -2.167,2.488 -5.976,2.752 -8.464,0.586 C -9.38,14.887 -9.644,11.078 -7.479,8.589 -4.986,5.727 -2.492,2.864 0,0"
             style="fill:#2c2b2a;fill-opacity:1;fill-rule:evenodd;stroke:none"
             id="path15098" />
        </g>
        <g
           id="g15100"
           transform="translate(413.5244,266.9092)">
          <path
             d="m 0,0 c 2.363,2.059 4.73,4.117 7.096,6.177 -1.954,2.244 -3.91,4.489 -5.864,6.734 -1.698,1.951 -4.684,2.158 -6.635,0.46 V 13.37 C -7.354,11.672 -7.562,8.686 -5.864,6.733 -3.909,4.489 -1.955,2.244 0,0"
             style="fill:#3f3f40;fill-opacity:1;fill-rule:evenodd;stroke:none"
             id="path15102" />
        </g>
        <g
           id="g15104"
           transform="translate(354.3818,199.3232)">
          <path
             d="m 0,0 c 7.082,0.544 11.064,23.918 10.52,31.001 -0.247,3.21 -1.654,6.056 -3.777,8.154 -2.526,2.498 -3.898,5.459 -4.17,9.004 -0.074,0.964 -0.148,1.928 -0.222,2.894 -4.155,-0.319 -8.311,-0.638 -12.465,-0.956 0.073,-0.966 0.148,-1.932 0.222,-2.896 0.273,-3.543 -0.631,-6.679 -2.747,-9.534 -1.778,-2.397 -2.734,-5.424 -2.487,-8.635 C -14.583,21.951 -7.081,-0.543 0,0"
             style="fill:#fab40a;fill-opacity:1;fill-rule:evenodd;stroke:none"
             id="path15106" />
        </g>
        <g
           id="g15108"
           transform="translate(358.0449,201.8018)">
          <path
             d="m 0,0 c 4.758,6.297 7.297,22.773 6.857,28.522 -0.248,3.21 -1.654,6.056 -3.777,8.155 -2.526,2.498 -3.898,5.459 -4.17,9.004 -0.074,0.964 -0.148,1.927 -0.222,2.893 -4.155,-0.318 -8.311,-0.637 -12.465,-0.956 0.012,-0.167 0.025,-0.334 0.039,-0.502 2.841,0.218 5.682,0.437 8.524,0.655 0.085,-1.112 0.171,-2.223 0.255,-3.334 0.314,-4.082 1.721,-7.502 4.279,-10.409 C 1.469,31.588 2.909,28.3 3.194,24.602 3.561,19.812 2.43,8.57 0,0"
             style="fill:#f2a50f;fill-opacity:1;fill-rule:evenodd;stroke:none"
             id="path15110" />
        </g>
        <g
           id="g15112"
           transform="translate(352.958,200.3672)">
          <path
             d="M 0,0 C 2.214,0.171 2.256,6.32 0.097,13.735 -2.064,21.15 -5.61,27.024 -7.824,26.854 -10.038,26.684 -10.081,20.535 -7.92,13.12 -5.759,5.705 -2.214,-0.17 0,0"
             style="fill:#fbc71b;fill-opacity:1;fill-rule:evenodd;stroke:none"
             id="path15114" />
        </g>
        <g
           id="g15116"
           transform="translate(342.6621,244.0732)">
          <path
             d="m 0,0 c 5.491,0.422 10.983,0.842 16.476,1.263 -0.339,4.418 -0.679,8.837 -1.018,13.254 -0.349,4.531 -4.339,7.954 -8.87,7.604 H 6.587 C 2.056,21.774 -1.366,17.783 -1.018,13.253 -0.68,8.834 -0.34,4.415 0,0"
             style="fill:#1c1a19;fill-opacity:1;fill-rule:evenodd;stroke:none"
             id="path15118" />
        </g>
        <g
           id="g15120"
           transform="translate(343.0918,244.1045)">
          <path
             d="M 0,0 C 3.986,0.307 7.975,0.612 11.963,0.919 11.672,4.703 11.382,8.487 11.091,12.273 10.838,15.561 7.939,18.048 4.65,17.796 1.36,17.543 -1.125,14.645 -0.872,11.356 -0.582,7.57 -0.291,3.784 0,0"
             style="fill:#2c2b2a;fill-opacity:1;fill-rule:evenodd;stroke:none"
             id="path15122" />
        </g>
        <g
           id="g15124"
           transform="translate(343.6289,244.1465)">
          <path
             d="M 0,0 C 3.126,0.239 6.253,0.48 9.379,0.721 9.151,3.688 8.925,6.654 8.696,9.623 8.498,12.201 6.227,14.151 3.647,13.953 1.067,13.754 -0.883,11.482 -0.685,8.901 -0.456,5.936 -0.228,2.967 0,0"
             style="fill:#3f3f40;fill-opacity:1;fill-rule:evenodd;stroke:none"
             id="path15126" />
        </g>
        <g
           id="g15128"
           transform="translate(253.4634,232.3584)">
          <path
             d="m 0,0 c 5.312,-4.713 24.883,8.675 29.596,13.988 2.136,2.411 3.204,5.399 3.237,8.382 0.04,3.555 1.214,6.599 3.571,9.26 0.644,0.723 1.284,1.446 1.928,2.172 -3.118,2.764 -6.235,5.53 -9.352,8.295 -0.644,-0.726 -1.285,-1.45 -1.928,-2.174 -2.359,-2.659 -5.24,-4.188 -8.763,-4.653 -2.961,-0.389 -5.8,-1.806 -7.937,-4.215 C 5.64,25.741 -5.314,4.712 0,0"
             style="fill:#f47051;fill-opacity:1;fill-rule:evenodd;stroke:none"
             id="path15130" />
        </g>
        <g
           id="g15132"
           transform="translate(257.7905,231.4473)">
          <path
             d="m 0,0 c 7.834,0.958 21.443,10.587 25.269,14.899 2.136,2.412 3.204,5.399 3.237,8.382 0.04,3.555 1.215,6.599 3.573,9.26 0.642,0.723 1.284,1.446 1.926,2.172 -3.118,2.765 -6.235,5.53 -9.353,8.295 -0.11,-0.126 -0.221,-0.252 -0.334,-0.377 2.133,-1.891 4.266,-3.781 6.397,-5.673 C 29.976,36.125 29.236,35.291 28.496,34.456 25.78,31.393 24.3,28.003 23.99,24.145 23.729,20.903 22.365,17.582 19.904,14.807 16.717,11.214 7.851,4.211 0,0"
             style="fill:#f25130;fill-opacity:1;fill-rule:evenodd;stroke:none"
             id="path15134" />
        </g>
        <g
           id="g15136"
           transform="translate(253.2231,234.1084)">
          <path
             d="m 0,0 c 1.661,-1.474 6.11,2.77 9.94,9.477 3.829,6.709 5.585,13.342 3.923,14.815 C 12.202,25.764 7.752,21.52 3.924,14.813 0.096,8.105 -1.661,1.472 0,0"
             style="fill:#f7927a;fill-opacity:1;fill-rule:evenodd;stroke:none"
             id="path15138" />
        </g>
        <g
           id="g15140"
           transform="translate(277.481,271.8926)">
          <path
             d="m 0,0 c 4.121,-3.655 8.241,-7.311 12.363,-10.966 2.939,3.315 5.879,6.63 8.821,9.946 3.014,3.399 2.698,8.647 -0.701,11.663 -3.4,3.015 -8.648,2.701 -11.664,-0.7 C 5.881,6.629 2.94,3.314 0,0"
             style="fill:#1c1a19;fill-opacity:1;fill-rule:evenodd;stroke:none"
             id="path15142" />
        </g>
        <g
           id="g15144"
           transform="translate(277.8022,271.6064)">
          <path
             d="m 0,0 c 2.994,-2.654 5.986,-5.309 8.978,-7.962 2.519,2.84 5.038,5.679 7.556,8.52 2.191,2.468 1.962,6.279 -0.508,8.468 C 13.558,11.216 9.747,10.987 7.557,8.519 5.038,5.68 2.519,2.839 0,0"
             style="fill:#2c2b2a;fill-opacity:1;fill-rule:evenodd;stroke:none"
             id="path15146" />
        </g>
        <g
           id="g15148"
           transform="translate(278.2075,271.248)">
          <path
             d="m 0,0 c 2.345,-2.079 4.691,-4.16 7.038,-6.241 1.976,2.226 3.95,4.453 5.925,6.678 1.716,1.937 1.538,4.925 -0.398,6.641 V 7.079 C 10.629,8.795 7.642,8.616 5.923,6.681 3.948,4.454 1.973,2.227 0,0"
             style="fill:#3f3f40;fill-opacity:1;fill-rule:evenodd;stroke:none"
             id="path15150" />
        </g>
        <g
           id="g15152"
           transform="translate(214.2681,334.7393)">
          <path
             d="m 0,0 c -0.713,-7.066 21.593,-15.105 28.659,-15.818 3.204,-0.325 6.253,0.558 8.693,2.278 2.906,2.047 6.062,2.875 9.598,2.519 0.962,-0.098 1.926,-0.196 2.889,-0.293 0.419,4.147 0.838,8.293 1.256,12.439 -0.964,0.097 -1.926,0.193 -2.89,0.291 -3.536,0.357 -6.463,1.8 -8.9,4.386 C 37.257,7.975 34.447,9.449 31.243,9.771 24.176,10.484 0.713,7.067 0,0"
             style="fill:#badf33;fill-opacity:1;fill-rule:evenodd;stroke:none"
             id="path15154" />
        </g>
        <g
           id="g15156"
           transform="translate(216.062,330.6963)">
          <path
             d="m 0,0 c 5.358,-5.792 21.131,-11.197 26.865,-11.775 3.204,-0.325 6.253,0.558 8.694,2.278 2.905,2.047 6.061,2.875 9.596,2.519 0.963,-0.098 1.927,-0.196 2.89,-0.293 0.418,4.147 0.837,8.293 1.256,12.439 -0.167,0.017 -0.334,0.033 -0.5,0.05 -0.287,-2.835 -0.573,-5.67 -0.859,-8.507 -1.11,0.113 -2.218,0.225 -3.328,0.337 -4.072,0.41 -7.689,-0.371 -10.999,-2.377 -2.781,-1.686 -6.272,-2.523 -9.963,-2.15 C 18.872,-6.997 8.007,-3.902 0,0"
             style="fill:#a8d51c;fill-opacity:1;fill-rule:evenodd;stroke:none"
             id="path15158" />
        </g>
        <g
           id="g15160"
           transform="translate(215.5464,335.9561)">
          <path
             d="M 0,0 C -0.222,-2.208 5.823,-3.335 13.502,-2.515 21.183,-1.694 27.589,0.761 27.812,2.97 28.035,5.179 21.99,6.305 14.31,5.484 6.63,4.665 0.223,2.21 0,0"
             style="fill:#c6e446;fill-opacity:1;fill-rule:evenodd;stroke:none"
             id="path15162" />
        </g>
        <g
           id="g15164"
           transform="translate(260.3823,338.3887)">
          <path
             d="m 0,0 c -0.553,-5.48 -1.106,-10.96 -1.66,-16.441 4.408,-0.445 8.816,-0.89 13.225,-1.335 4.521,-0.456 8.592,2.87 9.049,7.391 0.456,4.522 -2.869,8.593 -7.389,9.05 C 8.816,-0.89 4.407,-0.444 0,0"
             style="fill:#1c1a19;fill-opacity:1;fill-rule:evenodd;stroke:none"
             id="path15166" />
        </g>
        <g
           id="g15168"
           transform="translate(260.3384,337.96)">
          <path
             d="m 0,0 c -0.401,-3.979 -0.803,-7.959 -1.204,-11.939 3.776,-0.38 7.553,-0.761 11.329,-1.143 3.283,-0.331 6.239,2.084 6.572,5.366 0.331,3.283 -2.084,6.24 -5.367,6.571 C 7.554,-0.763 3.776,-0.382 0,0"
             style="fill:#2c2b2a;fill-opacity:1;fill-rule:evenodd;stroke:none"
             id="path15170" />
        </g>
        <g
           id="g15172"
           transform="translate(260.2847,337.4238)">
          <path
             d="m 0,0 c -0.315,-3.12 -0.631,-6.24 -0.945,-9.36 2.962,-0.299 5.922,-0.598 8.883,-0.897 2.575,-0.26 4.893,1.633 5.153,4.207 v 10e-4 c 0.26,2.574 -1.633,4.893 -4.207,5.152 C 5.923,-0.598 2.961,-0.3 0,0"
             style="fill:#3f3f40;fill-opacity:1;fill-rule:evenodd;stroke:none"
             id="path15174" />
        </g>
        <g
           id="g15176"
           transform="translate(296.0044,418.2544)">
          <path
             d="m 0,0 c -7.002,-1.183 -8.85,-24.821 -7.668,-31.825 0.537,-3.175 2.195,-5.881 4.5,-7.779 2.743,-2.26 4.378,-5.084 4.969,-8.588 0.16,-0.955 0.321,-1.91 0.484,-2.864 4.108,0.694 8.216,1.388 12.325,2.081 -0.16,0.955 -0.321,1.91 -0.483,2.864 -0.591,3.505 0.024,6.709 1.872,9.744 1.553,2.551 2.231,5.65 1.694,8.826 C 16.511,-20.538 7.002,1.183 0,0"
             style="fill:#978ecf;fill-opacity:1;fill-rule:evenodd;stroke:none"
             id="path15178" />
        </g>
        <g
           id="g15180"
           transform="translate(292.5815,415.4546)">
          <path
             d="m 0,0 c -4.167,-6.702 -5.204,-23.341 -4.245,-29.025 0.537,-3.175 2.195,-5.881 4.5,-7.78 2.743,-2.259 4.378,-5.083 4.969,-8.588 0.162,-0.954 0.321,-1.909 0.484,-2.863 4.108,0.694 8.216,1.388 12.325,2.081 -0.028,0.166 -0.055,0.332 -0.082,0.496 -2.812,-0.474 -5.622,-0.949 -8.432,-1.423 -0.185,1.099 -0.371,2.198 -0.556,3.297 -0.682,4.035 -2.393,7.316 -5.204,9.977 -2.36,2.236 -4.093,5.381 -4.71,9.038 C -1.751,-20.052 -1.645,-8.755 0,0"
             style="fill:#7570bf;fill-opacity:1;fill-rule:evenodd;stroke:none"
             id="path15182" />
        </g>
        <g
           id="g15184"
           transform="translate(297.5171,417.3433)">
          <path
             d="m 0,0 c -2.189,-0.37 -1.675,-6.497 1.15,-13.686 2.821,-7.189 6.887,-12.717 9.074,-12.348 2.19,0.369 1.677,6.497 -1.146,13.687 C 6.252,-5.158 2.19,0.371 0,0"
             style="fill:#c7bde4;fill-opacity:1;fill-rule:evenodd;stroke:none"
             id="path15186" />
        </g>
        <g
           id="g15188"
           transform="translate(311.7314,374.7515)">
          <path
             d="m 0,0 c -5.431,-0.917 -10.861,-1.834 -16.293,-2.751 0.738,-4.369 1.476,-8.738 2.214,-13.107 0.755,-4.48 5.041,-7.527 9.52,-6.771 4.481,0.757 7.528,5.042 6.772,9.523 C 1.476,-8.737 0.737,-4.369 0,0"
             style="fill:#1c1a19;fill-opacity:1;fill-rule:evenodd;stroke:none"
             id="path15190" />
        </g>
        <g
           id="g15192"
           transform="translate(311.3066,374.6797)">
          <path
             d="m 0,0 c -3.943,-0.665 -7.889,-1.332 -11.829,-1.999 0.63,-3.742 1.261,-7.484 1.894,-11.227 0.548,-3.254 3.661,-5.467 6.914,-4.917 3.253,0.55 5.466,3.661 4.917,6.915 C 1.264,-7.485 0.632,-3.743 0,0"
             style="fill:#2c2b2a;fill-opacity:1;fill-rule:evenodd;stroke:none"
             id="path15194" />
        </g>
        <g
           id="g15196"
           transform="translate(310.7754,374.5898)">
          <path
             d="m 0,0 c -3.094,-0.522 -6.186,-1.044 -9.277,-1.566 0.497,-2.935 0.99,-5.869 1.487,-8.805 0.432,-2.551 2.87,-4.285 5.422,-3.854 2.551,0.43 4.285,2.871 3.854,5.42 C 0.991,-5.869 0.494,-2.934 0,0"
             style="fill:#3f3f40;fill-opacity:1;fill-rule:evenodd;stroke:none"
             id="path15198" />
        </g>
        <g
           id="g15200"
           transform="translate(392.3174,341.5293)">
          <path
             d="m 0,0 c -0.064,7.103 -23.116,12.654 -30.218,12.591 -3.22,-0.028 -6.154,-1.238 -8.391,-3.215 -2.664,-2.353 -5.711,-3.521 -9.266,-3.553 l -2.902,-0.026 0.11,-12.5 2.905,0.025 c 3.554,0.032 6.62,-1.081 9.326,-3.386 2.273,-1.935 5.228,-3.093 8.448,-3.065 C -22.885,-13.065 0.062,-7.103 0,0"
             style="fill:#fab40a;fill-opacity:1;fill-rule:evenodd;stroke:none"
             id="path15202" />
        </g>
        <g
           id="g15204"
           transform="translate(390.0918,345.3525)">
          <path
             d="M 0,0 C -5.96,5.172 -22.229,8.819 -27.992,8.768 -31.212,8.739 -34.147,7.529 -36.384,5.553 -39.048,3.2 -42.095,2.032 -45.649,2 l -2.903,-0.026 0.111,-12.5 0.503,0.005 -0.077,8.549 3.346,0.03 c 4.092,0.036 7.601,1.208 10.673,3.564 2.579,1.98 5.959,3.194 9.666,3.227 C -19.525,4.893 -8.387,3.003 0,0"
             style="fill:#f2a50f;fill-opacity:1;fill-rule:evenodd;stroke:none"
             id="path15206" />
        </g>
        <g
           id="g15208"
           transform="translate(391.1797,340.1797)">
          <path
             d="m 0,0 c -0.021,2.221 -6.152,2.679 -13.698,1.024 -7.543,-1.654 -13.643,-4.795 -13.622,-7.015 0.018,-2.22 6.151,-2.679 13.696,-1.025 C -6.081,-5.361 0.018,-2.22 0,0"
             style="fill:#fbc71b;fill-opacity:1;fill-rule:evenodd;stroke:none"
             id="path15210" />
        </g>
        <g
           id="g15212"
           transform="translate(346.8789,332.8613)">
          <path
             d="m 0,0 -0.148,16.524 -13.29,-0.12 c -4.544,-0.04 -8.23,-3.791 -8.189,-8.335 0.04,-4.545 3.792,-8.228 8.335,-8.188 z"
             style="fill:#1c1a19;fill-opacity:1;fill-rule:evenodd;stroke:none"
             id="path15214" />
        </g>
        <g
           id="g15216"
           transform="translate(346.874,333.292)">
          <path
             d="m 0,0 -0.106,11.998 -11.387,-0.102 c -3.3,-0.029 -5.975,-2.753 -5.947,-6.052 0.031,-3.3 2.754,-5.976 6.053,-5.946 z"
             style="fill:#2c2b2a;fill-opacity:1;fill-rule:evenodd;stroke:none"
             id="path15218" />
        </g>
        <g
           id="g15220"
           transform="translate(346.8691,333.8311)">
          <path
             d="M 0,0 -0.084,9.407 -9.012,9.327 C -11.6,9.305 -13.697,7.169 -13.674,4.582 -13.65,1.994 -11.515,-0.104 -8.93,-0.08 Z"
             style="fill:#3f3f40;fill-opacity:1;fill-rule:evenodd;stroke:none"
             id="path15222" />
        </g>
        <path
           d="m 364.331,136.943 h 66.117 v 29.259 h -66.117 z"
           style="fill:#464648;fill-opacity:1;fill-rule:evenodd;stroke:none"
           id="path15224" />
        <g
           id="g15226"
           transform="translate(377.249,144.6855)">
          <path
             d="m 0,0 c 3.794,0 6.889,3.095 6.889,6.889 0,3.792 -3.095,6.887 -6.889,6.887 -3.794,0 -6.887,-3.095 -6.887,-6.887 C -6.887,3.095 -3.794,0 0,0"
             style="fill:#3c3c3d;fill-opacity:1;fill-rule:evenodd;stroke:none"
             id="path15228" />
        </g>
        <g
           id="g15230"
           transform="translate(377.249,146.793)">
          <path
             d="M 0,0 C 2.633,0 4.781,2.147 4.781,4.781 4.781,7.412 2.633,9.559 0,9.559 -2.633,9.559 -4.779,7.412 -4.779,4.781 -4.779,2.147 -2.633,0 0,0"
             style="fill:#cc2d23;fill-opacity:1;fill-rule:evenodd;stroke:none"
             id="path15232" />
        </g>
        <g
           id="g15234"
           transform="translate(397.3887,144.6855)">
          <path
             d="m 0,0 c 3.794,0 6.889,3.095 6.889,6.889 0,3.792 -3.095,6.887 -6.889,6.887 -3.793,0 -6.887,-3.095 -6.887,-6.887 C -6.887,3.095 -3.793,0 0,0"
             style="fill:#3c3c3d;fill-opacity:1;fill-rule:evenodd;stroke:none"
             id="path15236" />
        </g>
        <g
           id="g15238"
           transform="translate(397.3887,146.793)">
          <path
             d="M 0,0 C 2.633,0 4.781,2.147 4.781,4.781 4.781,7.412 2.633,9.559 0,9.559 -2.633,9.559 -4.779,7.412 -4.779,4.781 -4.779,2.147 -2.633,0 0,0"
             style="fill:#adda1a;fill-opacity:1;fill-rule:evenodd;stroke:none"
             id="path15240" />
        </g>
        <g
           id="g15242"
           transform="translate(418.4785,144.6855)">
          <path
             d="m 0,0 c 3.794,0 6.887,3.095 6.887,6.889 0,3.792 -3.093,6.887 -6.887,6.887 -3.794,0 -6.888,-3.095 -6.888,-6.887 C -6.888,3.095 -3.794,0 0,0"
             style="fill:#3c3c3d;fill-opacity:1;fill-rule:evenodd;stroke:none"
             id="path15244" />
        </g>
        <g
           id="g15246"
           transform="translate(418.4785,146.793)">
          <path
             d="M 0,0 C 2.633,0 4.779,2.147 4.779,4.781 4.779,7.412 2.633,9.559 0,9.559 -2.633,9.559 -4.779,7.412 -4.779,4.781 -4.779,2.147 -2.633,0 0,0"
             style="fill:#adda1a;fill-opacity:1;fill-rule:evenodd;stroke:none"
             id="path15248" />
        </g>
        <g
           id="g15250"
           transform="translate(474.7227,162.6875)">
          <path
             d="M 0,0 H 12.636 V -22.229 H 0 c -6.112,0 -11.113,5 -11.113,11.115 v 0.001 C -11.113,-5.001 -6.112,0 0,0"
             style="fill:#464648;fill-opacity:1;fill-rule:evenodd;stroke:none"
             id="path15252" />
        </g>
        <path
           d="m 485.363,137.656 h 4.845 v 27.835 h -4.845 z"
           style="fill:#1c1a19;fill-opacity:1;fill-rule:evenodd;stroke:none"
           id="path15254" />
      </g>
    </g>
  </g>
</svg>
