<?xml version="1.0" encoding="UTF-8" standalone="no"?>
<!-- Created with Inkscape (http://www.inkscape.org/) -->

<svg
   version="1.1"
   id="svg4160"
   width="880"
   height="880"
   viewBox="0 0 880 880"
   sodipodi:docname="picture-on-the-wall-publicdomain.svg"
   inkscape:version="1.2 (dc2aedaf03, 2022-05-15)"
   xmlns:inkscape="http://www.inkscape.org/namespaces/inkscape"
   xmlns:sodipodi="http://sodipodi.sourceforge.net/DTD/sodipodi-0.dtd"
   xmlns="http://www.w3.org/2000/svg"
   xmlns:svg="http://www.w3.org/2000/svg">
  <defs
     id="defs4164">
    <clipPath
       clipPathUnits="userSpaceOnUse"
       id="clipPath4182">
      <path
         d="M 0,660 H 660 V 0 H 0 Z"
         id="path4180" />
    </clipPath>
  </defs>
  <sodipodi:namedview
     id="namedview4162"
     pagecolor="#ffffff"
     bordercolor="#000000"
     borderopacity="0.25"
     inkscape:showpageshadow="2"
     inkscape:pageopacity="0.0"
     inkscape:pagecheckerboard="0"
     inkscape:deskcolor="#d1d1d1"
     showgrid="false"
     inkscape:zoom="0.95113636"
     inkscape:cx="441.05137"
     inkscape:cy="440.52569"
     inkscape:window-width="1920"
     inkscape:window-height="1017"
     inkscape:window-x="-8"
     inkscape:window-y="-8"
     inkscape:window-maximized="1"
     inkscape:current-layer="g4168">
    <inkscape:page
       x="0"
       y="0"
       id="page4166"
       width="880"
       height="880" />
  </sodipodi:namedview>
  <g
     id="g4168"
     inkscape:groupmode="layer"
     inkscape:label="Page 1"
     transform="matrix(1.3333333,0,0,-1.3333333,0,880)">
    <path
       d="M 0,3 H 657.003 V 660 H 0 Z"
       style="fill:#18414f;fill-opacity:1;fill-rule:nonzero;stroke:none"
       id="path4170" />
    <path
       d="M 34.459,37.458 H 622.542 V 625.542 H 34.459 Z"
       style="fill:#eafcfb;fill-opacity:1;fill-rule:evenodd;stroke:none"
       id="path4172" />
    <path
       d="M 63.174,66.173 H 593.829 V 596.827 H 63.174 Z"
       style="fill:#1fabb5;fill-opacity:1;fill-rule:evenodd;stroke:none"
       id="path4174" />
    <g
       id="g4176">
      <g
         id="g4178"
         clip-path="url(#clipPath4182)">
        <g
           id="g4184"
           transform="translate(63.1743,596.8267)">
          <path
             d="m 0,0 h 498.285 c -17.87,-230.707 -210.731,-412.348 -446.023,-412.348 -17.682,0 -35.116,1.057 -52.262,3.055 z"
             style="fill:#2ab3bd;fill-opacity:1;fill-rule:evenodd;stroke:none"
             id="path4186" />
        </g>
        <path
           d="m 164.811,510.948 h 3.19 v 85.879 h -3.19 z"
           style="fill:#ffffff;fill-opacity:1;fill-rule:evenodd;stroke:none"
           id="path4188" />
        <path
           d="m 290.367,407.02 h 3.189 v 189.807 h -3.189 z"
           style="fill:#ffffff;fill-opacity:1;fill-rule:evenodd;stroke:none"
           id="path4190" />
        <path
           d="m 403.951,491.154 h 3.188 v 105.673 h -3.188 z"
           style="fill:#ffffff;fill-opacity:1;fill-rule:evenodd;stroke:none"
           id="path4192" />
        <path
           d="m 511.92,454.973 h 3.189 v 141.854 h -3.189 z"
           style="fill:#ffffff;fill-opacity:1;fill-rule:evenodd;stroke:none"
           id="path4194" />
        <g
           id="g4196"
           transform="translate(324.2046,194.8096)">
          <path
             d="m 0,0 33.168,-58.048 33.168,-58.049 H 0 -66.336 l 33.168,58.049 z"
             style="fill:#82970a;fill-opacity:1;fill-rule:evenodd;stroke:none"
             id="path4198" />
        </g>
        <g
           id="g4200"
           transform="translate(324.2046,234.0078)">
          <path
             d="m 0,0 c 8.001,-15.273 16.002,-30.547 24.004,-45.818 8.001,-15.274 16.004,-30.545 24.006,-45.82 H 0 -48.012 c 8.002,15.275 16.005,30.546 24.006,45.82 C -16.003,-30.547 -8.001,-15.273 0,0"
             style="fill:#95ab13;fill-opacity:1;fill-rule:evenodd;stroke:none"
             id="path4202" />
        </g>
        <g
           id="g4204"
           transform="translate(324.2046,273.2031)">
          <path
             d="M 0,0 14.842,-33.587 29.683,-67.176 H 0 -29.685 l 14.841,33.589 z"
             style="fill:#a7bf1c;fill-opacity:1;fill-rule:evenodd;stroke:none"
             id="path4206" />
        </g>
        <g
           id="g4208"
           transform="translate(143.8809,161.708)">
          <path
             d="M 0,0 24.634,-43.111 49.267,-86.222 H 0 -49.267 l 24.634,43.111 z"
             style="fill:#82970a;fill-opacity:1;fill-rule:evenodd;stroke:none"
             id="path4210" />
        </g>
        <g
           id="g4212"
           transform="translate(143.8809,190.8193)">
          <path
             d="m 0,0 c 5.942,-11.344 11.885,-22.686 17.829,-34.027 5.942,-11.345 11.884,-22.687 17.828,-34.029 H 0 -35.656 c 5.943,11.342 11.886,22.684 17.828,34.029 C -11.885,-22.686 -5.943,-11.344 0,0"
             style="fill:#95ab13;fill-opacity:1;fill-rule:evenodd;stroke:none"
             id="path4214" />
        </g>
        <g
           id="g4216"
           transform="translate(143.8809,219.9307)">
          <path
             d="M 0,0 11.022,-24.945 22.047,-49.892 H 0 -22.046 l 11.023,24.947 z"
             style="fill:#a7bf1c;fill-opacity:1;fill-rule:evenodd;stroke:none"
             id="path4218" />
        </g>
        <path
           d="m 136.737,66.173 h 14.289 v 9.313 h -14.289 z"
           style="fill:#825323;fill-opacity:1;fill-rule:evenodd;stroke:none"
           id="path4220" />
        <g
           id="g4222"
           transform="translate(223.126,186.7744)">
          <path
             d="M 0,0 42.355,-49.104 84.709,-98.207 H 0 -84.71 l 42.355,49.103 z"
             style="fill:#a7bf1c;fill-opacity:1;fill-rule:evenodd;stroke:none"
             id="path4224" />
        </g>
        <g
           id="g4226"
           transform="translate(223.126,219.9307)">
          <path
             d="M 0,0 C 10.219,-12.92 20.437,-25.84 30.654,-38.758 40.872,-51.676 51.089,-64.596 61.308,-77.516 H 0 -61.307 c 10.218,12.92 20.437,25.84 30.655,38.758 C -20.435,-25.84 -10.218,-12.92 0,0"
             style="fill:#bbd13d;fill-opacity:1;fill-rule:evenodd;stroke:none"
             id="path4228" />
        </g>
        <g
           id="g4230"
           transform="translate(223.126,253.0879)">
          <path
             d="M 0,0 18.953,-28.412 37.905,-56.824 H 0 -37.905 l 18.952,28.412 z"
             style="fill:#cfe35d;fill-opacity:1;fill-rule:evenodd;stroke:none"
             id="path4232" />
        </g>
        <g
           id="g4234"
           transform="translate(493.8633,161.708)">
          <path
             d="M 0,0 24.634,-43.111 49.268,-86.222 H 0 -49.267 l 24.634,43.111 z"
             style="fill:#82970a;fill-opacity:1;fill-rule:evenodd;stroke:none"
             id="path4236" />
        </g>
        <g
           id="g4238"
           transform="translate(493.8633,190.8193)">
          <path
             d="m 0,0 c 5.942,-11.344 11.886,-22.686 17.829,-34.027 5.942,-11.345 11.884,-22.687 17.827,-34.029 H 0 -35.657 c 5.943,11.342 11.887,22.684 17.829,34.029 C -11.885,-22.686 -5.941,-11.344 0,0"
             style="fill:#95ab13;fill-opacity:1;fill-rule:evenodd;stroke:none"
             id="path4240" />
        </g>
        <g
           id="g4242"
           transform="translate(493.8633,219.9307)">
          <path
             d="M 0,0 11.022,-24.945 22.046,-49.892 H 0 -22.045 l 11.023,24.947 z"
             style="fill:#a7bf1c;fill-opacity:1;fill-rule:evenodd;stroke:none"
             id="path4244" />
        </g>
        <path
           d="m 486.72,66.173 h 14.288 v 9.313 H 486.72 Z"
           style="fill:#825323;fill-opacity:1;fill-rule:evenodd;stroke:none"
           id="path4246" />
        <path
           d="m 213.506,66.173 h 19.241 v 22.395 h -19.241 z"
           style="fill:#996633;fill-opacity:1;fill-rule:evenodd;stroke:none"
           id="path4248" />
        <g
           id="g4250"
           transform="translate(426.4297,210.6807)">
          <path
             d="m 0,0 41.064,-61.055 41.063,-61.058 H 0 -82.128 l 41.064,61.058 z"
             style="fill:#a7bf1c;fill-opacity:1;fill-rule:evenodd;stroke:none"
             id="path4252" />
        </g>
        <g
           id="g4254"
           transform="translate(426.4297,251.9141)">
          <path
             d="m 0,0 c 9.906,-16.066 19.812,-32.131 29.719,-48.195 9.908,-16.065 19.814,-32.129 29.72,-48.193 H 0 -59.44 c 9.908,16.064 19.814,32.128 29.72,48.193 C -19.814,-32.131 -9.907,-16.066 0,0"
             style="fill:#bbd13d;fill-opacity:1;fill-rule:evenodd;stroke:none"
             id="path4256" />
        </g>
        <g
           id="g4258"
           transform="translate(426.4297,293.1436)">
          <path
             d="M 0,0 18.375,-35.329 36.752,-70.66 H 0 -36.752 l 18.377,35.331 z"
             style="fill:#cfe35d;fill-opacity:1;fill-rule:evenodd;stroke:none"
             id="path4260" />
        </g>
        <path
           d="m 416.81,66.173 h 19.239 V 88.568 H 416.81 Z"
           style="fill:#996633;fill-opacity:1;fill-rule:evenodd;stroke:none"
           id="path4262" />
        <path
           d="m 314.585,66.173 h 19.241 v 12.54 h -19.241 z"
           style="fill:#825323;fill-opacity:1;fill-rule:evenodd;stroke:none"
           id="path4264" />
        <g
           id="g4266"
           transform="translate(110.853,429.208)">
          <path
             d="m 0,0 c -11.467,0 -20.762,9.295 -20.762,20.763 0,11.383 9.163,20.626 20.516,20.758 -0.45,2.05 -0.689,4.178 -0.689,6.363 0,16.322 13.231,29.554 29.553,29.554 2.517,0 4.96,-0.315 7.292,-0.908 2.746,9.18 11.253,15.871 21.326,15.871 12.138,0 22.007,-9.714 22.254,-21.792 0.804,0.063 1.617,0.096 2.438,0.096 16.2,0 29.485,-12.485 30.76,-28.358 2.416,0.918 5.035,1.422 7.772,1.422 12.085,0 21.885,-9.798 21.885,-21.885 C 142.345,9.798 132.545,0 120.46,0 Z"
             style="fill:#dfeff0;fill-opacity:1;fill-rule:evenodd;stroke:none"
             id="path4268" />
        </g>
        <g
           id="g4270"
           transform="translate(259.3564,398.1685)">
          <path
             d="m 0,0 c 4.948,0 9.534,-1.544 13.307,-4.176 1.185,9.768 9.506,17.337 19.596,17.337 10.903,0 19.742,-8.839 19.742,-19.741 0,-0.505 -0.019,-1.007 -0.058,-1.503 1.401,0.321 2.862,0.49 4.359,0.49 10.762,0 19.49,-8.725 19.49,-19.488 0,-10.763 -8.728,-19.488 -19.49,-19.488 H 0 c -12.858,0 -23.284,10.424 -23.284,23.285 C -23.284,-10.424 -12.858,0 0,0"
             style="fill:#dfeff0;fill-opacity:1;fill-rule:evenodd;stroke:none"
             id="path4272" />
        </g>
        <g
           id="g4274"
           transform="translate(446.2197,475.7251)">
          <path
             d="m 0,0 c 8.471,0 15.339,6.868 15.339,15.339 0,8.411 -6.77,15.239 -15.158,15.336 0.333,1.514 0.51,3.087 0.51,4.701 0,12.058 -9.775,21.833 -21.834,21.833 -1.859,0 -3.664,-0.233 -5.387,-0.67 -2.027,6.782 -8.314,11.725 -15.756,11.725 -8.966,0 -16.257,-7.177 -16.44,-16.1 -0.594,0.047 -1.193,0.07 -1.798,0.07 -11.971,0 -21.784,-9.222 -22.726,-20.948 -1.785,0.677 -3.72,1.05 -5.743,1.05 -8.928,0 -16.167,-7.239 -16.167,-16.168 C -105.16,7.239 -97.921,0 -88.993,0 Z"
             style="fill:#dfeff0;fill-opacity:1;fill-rule:evenodd;stroke:none"
             id="path4276" />
        </g>
        <g
           id="g4278"
           transform="translate(542.5029,433.7227)">
          <path
             d="M 0,0 -0.245,-0.003 C -0.084,1.268 0,2.563 0,3.876 c 0,16.891 -13.692,30.582 -30.581,30.582 -12.895,0 -23.924,-7.979 -28.422,-19.269 -6.012,-0.973 -11.289,-4.136 -14.989,-8.643 -3.313,1.333 -6.93,2.069 -10.718,2.069 -15.858,0 -28.715,-12.857 -28.715,-28.715 0,-15.859 12.857,-28.715 28.715,-28.715 H 0 c 13.481,0 24.407,10.928 24.407,24.407 C 24.407,-10.928 13.481,0 0,0"
             style="fill:#dfeff0;fill-opacity:1;fill-rule:evenodd;stroke:none"
             id="path4280" />
        </g>
      </g>
    </g>
  </g>
</svg>
