<?xml version="1.0" standalone="no"?><!-- Generator: Gravit.io --><svg xmlns="http://www.w3.org/2000/svg" xmlns:xlink="http://www.w3.org/1999/xlink" style="isolation:isolate" viewBox="0 0 450 450" width="450" height="450"><defs><clipPath id="_clipPath_RETBcUlqzzbKdpA6ewXLUCQJooSwpVyc"><rect width="450" height="450"/></clipPath></defs><g clip-path="url(#_clipPath_RETBcUlqzzbKdpA6ewXLUCQJooSwpVyc)"><g id="Group"><path d=" M 74.857 258 L 367.204 258 L 397.816 265.653 L 39.653 265.653 L 74.857 258 Z " fill="rgb(236,189,121)"/><rect x="70.265" y="293.204" width="35.204" height="39.796" transform="matrix(1,0,0,1,0,0)" fill="rgb(186,125,34)"/><rect x="70.265" y="293.204" width="35.204" height="15.306" transform="matrix(1,0,0,1,0,0)" fill="rgb(161,87,24)"/><rect x="332" y="293.204" width="35.204" height="39.796" transform="matrix(1,0,0,1,0,0)" fill="rgb(186,125,34)"/><rect x="332" y="293.204" width="35.204" height="15.306" transform="matrix(1,0,0,1,0,0)" fill="rgb(161,87,24)"/><path d="M 38.122 265.653 L 400.878 265.653 C 402.567 265.653 403.939 267.025 403.939 268.714 L 403.939 296.265 C 403.939 297.955 402.567 299.327 400.878 299.327 L 38.122 299.327 C 36.433 299.327 35.061 297.955 35.061 296.265 L 35.061 268.714 C 35.061 267.025 36.433 265.653 38.122 265.653 Z" style="stroke:none;fill:#BA7D22;stroke-miterlimit:10;"/></g></g></svg>