<?xml version="1.0" encoding="UTF-8" standalone="no"?>
<!--part of the rodentia icon theme by sixsixfive released under CC0 (https://creativecommons.org/publicdomain/zero/1.0/) on openclipart-->
<svg xmlns="http://www.w3.org/2000/svg" xmlns:xlink="http://www.w3.org/1999/xlink" viewBox="0 0 48 48">
 <defs id="0">
  <linearGradient id="A">
   <stop id="N" stop-color="#fff" stop-opacity="0.8"/>
   <stop id="O" offset="1" stop-color="#fff" stop-opacity="0"/>
  </linearGradient>
  <linearGradient id="B">
   <stop id="P" stop-color="#eeeeec"/>
   <stop id="Q" offset="1" stop-color="#d3d7cf"/>
  </linearGradient>
  <linearGradient id="C">
   <stop id="R" stop-color="#2e3436"/>
   <stop id="S" offset="1" stop-color="#2e3436" stop-opacity="0"/>
  </linearGradient>
  <radialGradient cx="25.712" cy="48.735" r="21.856" id="D" xlink:href="#C" gradientUnits="userSpaceOnUse" gradientTransform="matrix(1,0,0,0.09243698,0,44.229759)"/>
  <radialGradient cx="13.559" cy="12.06" r="16.219" id="E" xlink:href="#B" gradientUnits="userSpaceOnUse" gradientTransform="matrix(0.6174379,2.5604989,-3.7886681,0.9135993,49.367351,-37.86865)"/>
  <linearGradient y1="2.438" x2="0" y2="43.34" id="F" xlink:href="#A" gradientUnits="userSpaceOnUse"/>
  <radialGradient cx="34.13" cy="8.609" r="3.03" id="G" xlink:href="#B" gradientUnits="userSpaceOnUse" gradientTransform="matrix(1.9999999,2.0717464e-7,-2.1678585e-7,2.0927836,-34.124995,-9.2675658)"/>
  <linearGradient x1="34.13" y1="8.75" x2="36.533" y2="6.363" id="H" xlink:href="#A" gradientUnits="userSpaceOnUse"/>
  <filter x="-0.16" y="-0.151" width="1.321" height="1.302" color-interpolation-filters="sRGB" id="I">
   <feGaussianBlur stdDeviation="0.5327" id="T"/>
  </filter>
  <linearGradient id="J">
   <stop id="U" stop-color="#eee"/>
   <stop id="V" offset="1" stop-color="#dcdcdc"/>
  </linearGradient>
  <radialGradient cx="60.05" cy="51.39" r="15.03" id="K" xlink:href="#J" gradientUnits="userSpaceOnUse" gradientTransform="matrix(-1.404511,1.1888571,-1,-1.1813958,199.73811,11.750541)"/>
 </defs>
 <path d="m 47.568058,48.734642 a 21.855595,2.0202651 0 1 1 -43.7111893,0 21.855595,2.0202651 0 1 1 43.7111893,0 z" transform="matrix(1.0944165,0,0,0.9661277,-4.1401442,-2.4030967)" id="1" opacity="0.54" fill="url(#D)"/>
 <path d="M 9.84375,1.367375 C 8.1263501,1.367375 6.75,2.7437253 6.75,4.461125 l 0,37.15625 c 0,1.7174 1.3763496,3.093751 3.09375,3.09375 l 28.3125,0 c 1.7174,0 3.09375,-1.376351 3.09375,-3.09375 l 0,-33.21875 -6.75,-7.03125 -24.65625,0 z" id="2" fill="#888a85"/>
 <path d="m 9.84375,2.25 c -1.1586131,0 -2.0625,0.903887 -2.0625,2.0625 l 0,37.15625 c 0,1.158614 0.9038868,2.062501 2.0625,2.0625 l 28.3125,0 c 1.158613,0 2.0625,-0.903888 2.0625,-2.0625 l 0,-32.78125 L 34.0625,2.25 9.84375,2.25 z" transform="translate(4.4958504e-8,0.148625)" id="3" fill="url(#E)"/>
 <path d="m 9.84375,2.75 c -0.8977312,0 -1.5625,0.6647689 -1.5625,1.5625 l 0,37.15625 c 0,0.897732 0.6647689,1.562501 1.5625,1.5625 l 28.3125,0 c 0.897731,0 1.5625,-0.66477 1.5625,-1.5625 l 0,-32.625 -5.875,-6.09375 -24,0 z" transform="translate(4.4958504e-8,0.148625)" id="4" opacity="0.8" fill="none" stroke="url(#F)" stroke-linejoin="round" stroke-linecap="square"/>
 <path d="m 32.25,2.40625 0,6.875 c 0,0.956611 0.676661,1.593751 1.71875,1.59375 l 6.25,0 0,-1.8125 -6.9375,-6.65625 -1.03125,0 z" id="5" opacity="0.16" fill="#2e3436" filter="url(#I)"/>
 <path d="m 33.125,1.375 0,6.3125 c -2e-6,1.158614 0.903887,2.062501 2.0625,2.0625 l 6.0625,0 0,-1.34375 -6.75,-7.03125 -1.375,0 z" id="6" fill="#888a85"/>
 <path d="m 34.125,2.40625 0,5.28125 c -10e-7,0.6407004 0.421799,1.0625006 1.0625,1.0625 l 5,0 -6.0625,-6.34375 z" id="7" fill="url(#G)"/>
 <path d="m 34.625,3.6875 0,4 c -10e-7,0.3773049 0.185194,0.5625003 0.5625,0.5625 l 3.84375,0 L 34.625,3.6875 z" id="8" opacity="0.8" fill="none" stroke="url(#H)" stroke-linecap="square"/>
 <g transform="translate(-1.2295504e-4,-0.500144)" id="9">
  <path d="m 24.158879,11.445075 c -3.239368,2.4e-5 -5.866831,0.494679 -7.726104,1.561078 -1.019142,0.580537 -1.791648,1.10683 -2.328415,1.640456 l -0.02646,0 c -0.548483,0.56629 -0.793779,1.231556 -0.793778,1.931503 -10e-7,0.789246 0.459577,1.55258 1.322963,2.03734 l 0.02646,0 c 0.785403,0.426796 1.712559,0.661498 2.672385,0.661474 0.976018,2.1e-5 1.865266,-0.147882 2.645927,-0.476261 0.816209,-0.343294 1.40233,-0.963538 1.402341,-1.613997 -10e-6,-0.473308 -0.163204,-0.895123 -0.529186,-1.270029 l 0.02646,-0.02646 c -0.189929,-0.22058 -0.264595,-0.418537 -0.264592,-0.608556 -3e-6,-0.258676 0.109969,-0.413524 0.7144,-0.687933 l 0.02646,0 c 0.624111,-0.286364 1.365171,-0.449784 2.328415,-0.449803 0.722314,1.5e-5 1.308907,0.237055 1.984444,0.978982 0.68562,0.753063 1.005438,1.597473 1.005452,2.592978 -1.4e-5,0.760808 -0.186158,1.345169 -0.529185,1.799209 -0.360258,0.476841 -0.963435,0.998058 -1.852148,1.534618 l -0.02646,0 c -0.903531,0.573116 -1.670109,1.166676 -2.275496,1.77275 -0.608215,0.596223 -1.04137,1.204286 -1.296504,1.825668 l 0,0.02646 c -0.207858,0.548402 -0.347255,0.996117 -0.423349,1.375866 l 0,0.02646 c -0.0556,0.369898 -0.105844,0.794074 -0.105836,1.296488 l 0,0.899605 c -10e-6,0.513387 0.09483,0.924372 0.529185,1.322948 l 0.02646,0.02646 c 0.573759,0.486076 1.359598,0.555645 2.222578,0.555638 0.877014,6e-6 1.640739,-0.06276 2.222577,-0.555638 0.498878,-0.392428 0.60855,-0.823707 0.608563,-1.349407 l 0,-0.846687 c -1.1e-5,-0.55629 0.09365,-1.047525 0.238134,-1.455242 0.159755,-0.409857 0.358024,-0.684645 0.608563,-0.926064 0.327135,-0.310938 0.610818,-0.561057 0.846695,-0.714391 0.255208,-0.165894 0.608116,-0.35037 1.031912,-0.555639 0.693951,-0.349483 1.265404,-0.630396 1.666933,-0.846686 0.4408,-0.240184 0.942914,-0.577133 1.561096,-0.978981 l 0.02646,0 c 0.641601,-0.429335 1.143436,-0.839692 1.534636,-1.243571 0.392621,-0.405354 0.730979,-0.873388 1.005453,-1.402324 0.310048,-0.560198 0.449782,-1.135451 0.449807,-1.719832 -2e-5,-1.822298 -1.016226,-3.391969 -2.963437,-4.498023 -1.932399,-1.121367 -4.502244,-1.640431 -7.593807,-1.640455 z m -0.582104,19.817757 c -1.047439,6e-6 -2.010723,0.31018 -2.751763,0.820227 -0.729399,0.502031 -1.164219,1.162531 -1.164208,1.878586 -9e-6,0.69993 0.442094,1.381576 1.164208,1.878586 l 0,0.02646 c 0.743481,0.496682 1.711411,0.767309 2.751763,0.76731 1.028512,-10e-7 2.011858,-0.273034 2.751763,-0.76731 0.741294,-0.495225 1.190647,-1.200038 1.190666,-1.905045 -1.7e-5,-0.720922 -0.441985,-1.404878 -1.190666,-1.905045 -0.737516,-0.507604 -1.716012,-0.793766 -2.751763,-0.793768 z" id="L" fill="#fff"/>
  <path d="m 24.158754,10.444788 c -3.239331,2.4e-5 -5.866763,0.494679 -7.726015,1.561078 -1.01913,0.580537 -1.791628,1.10683 -2.328388,1.640456 l -0.02646,0 c -0.548477,0.56629 -0.79377,1.231556 -0.793769,1.931503 -10e-7,0.789246 0.459572,1.55258 1.322948,2.03734 l 0.02646,0 c 0.785393,0.426796 1.712539,0.661498 2.672354,0.661474 0.976007,2.1e-5 1.865244,-0.147882 2.645896,-0.476261 0.8162,-0.343294 1.402314,-0.963538 1.402325,-1.613997 -10e-6,-0.473308 -0.163202,-0.895123 -0.52918,-1.270029 l 0.02646,-0.02646 c -0.189927,-0.22058 -0.264592,-0.418537 -0.264589,-0.608556 -3e-6,-0.258676 0.109968,-0.413524 0.714392,-0.687933 l 0.02646,0 c 0.624104,-0.286364 1.365155,-0.449784 2.328388,-0.449803 0.722306,1.5e-5 1.308892,0.237055 1.984421,0.978982 0.685612,0.753063 1.005427,1.597473 1.005441,2.592978 -1.4e-5,0.760808 -0.186156,1.345169 -0.529179,1.799209 -0.360254,0.476841 -0.963424,0.998058 -1.852127,1.534618 l -0.02646,0 c -0.90352,0.573116 -1.67009,1.166676 -2.27547,1.77275 -0.608208,0.596223 -1.041358,1.204286 -1.296489,1.825668 l 0,0.02646 c -0.207855,0.548402 -0.347251,0.996117 -0.423344,1.375866 l 0,0.02646 c -0.0556,0.369898 -0.105843,0.794074 -0.105835,1.296488 l 0,0.899605 c -10e-6,0.513387 0.09483,0.924372 0.529179,1.322948 l 0.02646,0.02646 c 0.573752,0.486076 1.359582,0.555645 2.222552,0.555638 0.877004,6e-6 1.640721,-0.06276 2.222552,-0.555638 0.498872,-0.392428 0.608543,-0.823707 0.608556,-1.349407 l 0,-0.846687 c -1.1e-5,-0.55629 0.09365,-1.047525 0.238131,-1.455242 0.159753,-0.409857 0.35802,-0.684645 0.608556,-0.926064 0.327131,-0.310938 0.610811,-0.561057 0.846686,-0.714391 0.255205,-0.165894 0.608109,-0.35037 1.0319,-0.555639 0.693943,-0.349483 1.265389,-0.630396 1.666914,-0.846686 0.440794,-0.240184 0.942903,-0.577133 1.561078,-0.978981 l 0.02646,0 c 0.641594,-0.429335 1.143423,-0.839692 1.534619,-1.243571 0.392616,-0.405354 0.73097,-0.873388 1.005441,-1.402324 0.310045,-0.560198 0.449777,-1.135451 0.449802,-1.719832 -2e-5,-1.822298 -1.016214,-3.391969 -2.963403,-4.498023 -1.932377,-1.121367 -4.502192,-1.640431 -7.59372,-1.640455 z m -0.582097,19.817757 c -1.047427,6e-6 -2.0107,0.31018 -2.751732,0.820227 -0.72939,0.502031 -1.164205,1.162531 -1.164194,1.878586 -9e-6,0.69993 0.442089,1.381576 1.164194,1.878586 l 0,0.02646 c 0.743473,0.496682 1.711392,0.767309 2.751732,0.76731 1.0285,-10e-7 2.011835,-0.273034 2.751731,-0.76731 0.741286,-0.495225 1.190634,-1.200038 1.190653,-1.905045 -1.7e-5,-0.720922 -0.44198,-1.404878 -1.190653,-1.905045 -0.737507,-0.507604 -1.715992,-0.793766 -2.751731,-0.793768 z" id="M" fill="#888a85"/>
 </g>
</svg>
